<?xml version="1.0" encoding="UTF-8" standalone="no"?>
<!DOCTYPE svg PUBLIC "-//W3C//DTD SVG 1.1//EN"
 "http://www.w3.org/Graphics/SVG/1.1/DTD/svg11.dtd">
<!-- Generated by graphviz version 2.34.0 (20131025.1729)
 -->
<!-- Title: controllers_diagram Pages: 1 -->
<svg width="1031pt" height="978pt"
 viewBox="0.00 0.00 1030.90 978.00" xmlns="http://www.w3.org/2000/svg" xmlns:xlink="http://www.w3.org/1999/xlink">
<g id="graph0" class="graph" transform="scale(1 1) rotate(0) translate(4 974)">
<title>controllers_diagram</title>
<polygon fill="white" stroke="white" points="-4,4 -4,-974 1026.9,-974 1026.9,4 -4,4"/>
<!-- _diagram_info -->
<g id="node1" class="node"><title>_diagram_info</title>
<text text-anchor="start" x="824" y="-953" font-family="Times,serif" font-size="13.00">Controllers diagram</text>
<text text-anchor="start" x="824" y="-937.4" font-family="Times,serif" font-size="13.00">Date: Nov 10 2013 &#45; 23:14</text>
<text text-anchor="start" x="824" y="-921.8" font-family="Times,serif" font-size="13.00">Migration version: 20130627045611</text>
<text text-anchor="start" x="824" y="-906.2" font-family="Times,serif" font-size="13.00">Generated by RailRoady 1.1.1</text>
<text text-anchor="start" x="824" y="-890.6" font-family="Times,serif" font-size="13.00">http://railroady.prestonlee.com</text>
</g>
<!-- Admin::UsersController -->
<g id="node2" class="node"><title>Admin::UsersController</title>
<path fill="none" stroke="black" d="M12,-286.523C12,-286.523 197.635,-286.523 197.635,-286.523 203.635,-286.523 209.635,-292.523 209.635,-298.523 209.635,-298.523 209.635,-540.923 209.635,-540.923 209.635,-546.923 203.635,-552.923 197.635,-552.923 197.635,-552.923 12,-552.923 12,-552.923 6,-552.923 5.68434e-14,-546.923 5.68434e-14,-540.923 5.68434e-14,-540.923 5.68434e-14,-298.523 5.68434e-14,-298.523 5.68434e-14,-292.523 6,-286.523 12,-286.523"/>
<text text-anchor="middle" x="104.817" y="-534.923" font-family="Times,serif" font-size="14.00">Admin::UsersController</text>
<polyline fill="none" stroke="black" points="5.68434e-14,-528.123 209.635,-528.123 "/>
<text text-anchor="start" x="8" y="-510.123" font-family="Times,serif" font-size="14.00">_one_time_conditions_valid_164?</text>
<text text-anchor="start" x="8" y="-493.323" font-family="Times,serif" font-size="14.00">approve</text>
<text text-anchor="start" x="8" y="-476.523" font-family="Times,serif" font-size="14.00">index</text>
<text text-anchor="start" x="8" y="-459.723" font-family="Times,serif" font-size="14.00">pair</text>
<text text-anchor="start" x="8" y="-442.923" font-family="Times,serif" font-size="14.00">paired</text>
<text text-anchor="start" x="8" y="-426.123" font-family="Times,serif" font-size="14.00">pending_users</text>
<polyline fill="none" stroke="black" points="5.68434e-14,-419.323 209.635,-419.323 "/>
<polyline fill="none" stroke="black" points="5.68434e-14,-395.323 209.635,-395.323 "/>
<text text-anchor="start" x="8" y="-377.323" font-family="Times,serif" font-size="14.00">_layout</text>
<text text-anchor="start" x="8" y="-360.523" font-family="Times,serif" font-size="14.00">approve_users</text>
<text text-anchor="start" x="8" y="-343.723" font-family="Times,serif" font-size="14.00">deny_users</text>
<text text-anchor="start" x="8" y="-326.923" font-family="Times,serif" font-size="14.00">notify_pair</text>
<text text-anchor="start" x="8" y="-310.123" font-family="Times,serif" font-size="14.00">pair_ids</text>
<text text-anchor="start" x="8" y="-293.323" font-family="Times,serif" font-size="14.00">remove_mentor</text>
</g>
<!-- ApplicationController -->
<g id="node3" class="node"><title>ApplicationController</title>
<path fill="none" stroke="black" d="M292.853,-333.073C292.853,-333.073 478.488,-333.073 478.488,-333.073 484.488,-333.073 490.488,-339.073 490.488,-345.073 490.488,-345.073 490.488,-486.673 490.488,-486.673 490.488,-492.673 484.488,-498.673 478.488,-498.673 478.488,-498.673 292.853,-498.673 292.853,-498.673 286.853,-498.673 280.853,-492.673 280.853,-486.673 280.853,-486.673 280.853,-345.073 280.853,-345.073 280.853,-339.073 286.853,-333.073 292.853,-333.073"/>
<text text-anchor="middle" x="385.671" y="-480.673" font-family="Times,serif" font-size="14.00">ApplicationController</text>
<polyline fill="none" stroke="black" points="280.853,-473.873 490.488,-473.873 "/>
<text text-anchor="start" x="288.853" y="-455.873" font-family="Times,serif" font-size="14.00">_one_time_conditions_valid_162?</text>
<text text-anchor="start" x="288.853" y="-439.073" font-family="Times,serif" font-size="14.00">after_sign_in_path_for</text>
<text text-anchor="start" x="288.853" y="-422.273" font-family="Times,serif" font-size="14.00">authorize_admin!</text>
<text text-anchor="start" x="288.853" y="-405.473" font-family="Times,serif" font-size="14.00">current_user_approved?</text>
<text text-anchor="start" x="288.853" y="-388.673" font-family="Times,serif" font-size="14.00">user</text>
<polyline fill="none" stroke="black" points="280.853,-381.873 490.488,-381.873 "/>
<polyline fill="none" stroke="black" points="280.853,-357.873 490.488,-357.873 "/>
<text text-anchor="start" x="288.853" y="-339.873" font-family="Times,serif" font-size="14.00">_layout</text>
</g>
<!-- ApplicationController&#45;&gt;Admin::UsersController -->
<g id="edge1" class="edge"><title>ApplicationController&#45;&gt;Admin::UsersController</title>
<path fill="none" stroke="black" d="M280.692,-417.312C259.2,-417.607 236.522,-417.918 214.859,-418.215"/>
<polyline fill="none" stroke="black" points="209.669,-418.286 214.668,-418.217 "/>
</g>
<!-- HomeController -->
<g id="node4" class="node"><title>HomeController</title>
<path fill="none" stroke="black" d="M497.173,-23.6012C497.173,-23.6012 580.931,-23.6012 580.931,-23.6012 586.931,-23.6012 592.931,-29.6012 592.931,-35.6012 592.931,-35.6012 592.931,-126.801 592.931,-126.801 592.931,-132.801 586.931,-138.801 580.931,-138.801 580.931,-138.801 497.173,-138.801 497.173,-138.801 491.173,-138.801 485.173,-132.801 485.173,-126.801 485.173,-126.801 485.173,-35.6012 485.173,-35.6012 485.173,-29.6012 491.173,-23.6012 497.173,-23.6012"/>
<text text-anchor="middle" x="539.052" y="-120.801" font-family="Times,serif" font-size="14.00">HomeController</text>
<polyline fill="none" stroke="black" points="485.173,-114.001 592.931,-114.001 "/>
<text text-anchor="start" x="493.173" y="-96.0012" font-family="Times,serif" font-size="14.00">index</text>
<text text-anchor="start" x="493.173" y="-79.2012" font-family="Times,serif" font-size="14.00">need_approval</text>
<polyline fill="none" stroke="black" points="485.173,-72.4012 592.931,-72.4012 "/>
<polyline fill="none" stroke="black" points="485.173,-48.4012 592.931,-48.4012 "/>
<text text-anchor="start" x="493.173" y="-30.4012" font-family="Times,serif" font-size="14.00">_layout</text>
</g>
<!-- ApplicationController&#45;&gt;HomeController -->
<g id="edge2" class="edge"><title>ApplicationController&#45;&gt;HomeController</title>
<path fill="none" stroke="black" d="M423.782,-332.715C450.609,-274.179 485.953,-197.06 510.398,-143.724"/>
<polyline fill="none" stroke="black" points="512.581,-138.961 510.497,-143.506 "/>
</g>
<!-- MentorsController -->
<g id="node5" class="node"><title>MentorsController</title>
<path fill="none" stroke="black" d="M261.584,-568.339C261.584,-568.339 507.854,-568.339 507.854,-568.339 513.854,-568.339 519.854,-574.339 519.854,-580.339 519.854,-580.339 519.854,-923.539 519.854,-923.539 519.854,-929.539 513.854,-935.539 507.854,-935.539 507.854,-935.539 261.584,-935.539 261.584,-935.539 255.584,-935.539 249.584,-929.539 249.584,-923.539 249.584,-923.539 249.584,-580.339 249.584,-580.339 249.584,-574.339 255.584,-568.339 261.584,-568.339"/>
<text text-anchor="middle" x="384.719" y="-917.539" font-family="Times,serif" font-size="14.00">MentorsController</text>
<polyline fill="none" stroke="black" points="249.584,-910.739 519.854,-910.739 "/>
<text text-anchor="start" x="257.584" y="-892.739" font-family="Times,serif" font-size="14.00">_one_time_conditions_valid_166?</text>
<text text-anchor="start" x="257.584" y="-875.939" font-family="Times,serif" font-size="14.00">_one_time_conditions_valid_170?</text>
<text text-anchor="start" x="257.584" y="-859.139" font-family="Times,serif" font-size="14.00">_one_time_conditions_valid_174?</text>
<text text-anchor="start" x="257.584" y="-842.339" font-family="Times,serif" font-size="14.00">_one_time_conditions_valid_176?</text>
<text text-anchor="start" x="257.584" y="-825.539" font-family="Times,serif" font-size="14.00">create</text>
<text text-anchor="start" x="257.584" y="-808.739" font-family="Times,serif" font-size="14.00">destroy</text>
<text text-anchor="start" x="257.584" y="-791.939" font-family="Times,serif" font-size="14.00">edit</text>
<text text-anchor="start" x="257.584" y="-775.139" font-family="Times,serif" font-size="14.00">index</text>
<text text-anchor="start" x="257.584" y="-758.339" font-family="Times,serif" font-size="14.00">new</text>
<text text-anchor="start" x="257.584" y="-741.539" font-family="Times,serif" font-size="14.00">rankings</text>
<text text-anchor="start" x="257.584" y="-724.739" font-family="Times,serif" font-size="14.00">show</text>
<text text-anchor="start" x="257.584" y="-707.939" font-family="Times,serif" font-size="14.00">update</text>
<polyline fill="none" stroke="black" points="249.584,-701.139 519.854,-701.139 "/>
<polyline fill="none" stroke="black" points="249.584,-677.139 519.854,-677.139 "/>
<text text-anchor="start" x="257.584" y="-659.139" font-family="Times,serif" font-size="14.00">_layout</text>
<text text-anchor="start" x="257.584" y="-642.339" font-family="Times,serif" font-size="14.00">authorize_admins_or_a_mentor!</text>
<text text-anchor="start" x="257.584" y="-625.539" font-family="Times,serif" font-size="14.00">authorize_admins_or_students_or_a_mentor!</text>
<text text-anchor="start" x="257.584" y="-608.739" font-family="Times,serif" font-size="14.00">find_mentor</text>
<text text-anchor="start" x="257.584" y="-591.939" font-family="Times,serif" font-size="14.00">set_update_message</text>
<text text-anchor="start" x="257.584" y="-575.139" font-family="Times,serif" font-size="14.00">update_mentor</text>
</g>
<!-- ApplicationController&#45;&gt;MentorsController -->
<g id="edge3" class="edge"><title>ApplicationController&#45;&gt;MentorsController</title>
<path fill="none" stroke="black" d="M385.435,-498.945C385.379,-518.733 385.317,-540.653 385.254,-563.076"/>
<polyline fill="none" stroke="black" points="385.239,-568.171 385.254,-563.171 "/>
</g>
<!-- NotificationsController -->
<g id="node6" class="node"><title>NotificationsController</title>
<path fill="none" stroke="black" d="M548.977,-603.319C548.977,-603.319 734.612,-603.319 734.612,-603.319 740.612,-603.319 746.612,-609.319 746.612,-615.319 746.612,-615.319 746.612,-790.519 746.612,-790.519 746.612,-796.519 740.612,-802.519 734.612,-802.519 734.612,-802.519 548.977,-802.519 548.977,-802.519 542.977,-802.519 536.977,-796.519 536.977,-790.519 536.977,-790.519 536.977,-615.319 536.977,-615.319 536.977,-609.319 542.977,-603.319 548.977,-603.319"/>
<text text-anchor="middle" x="641.795" y="-784.519" font-family="Times,serif" font-size="14.00">NotificationsController</text>
<polyline fill="none" stroke="black" points="536.977,-777.719 746.612,-777.719 "/>
<text text-anchor="start" x="544.977" y="-759.719" font-family="Times,serif" font-size="14.00">_one_time_conditions_valid_182?</text>
<text text-anchor="start" x="544.977" y="-742.919" font-family="Times,serif" font-size="14.00">create</text>
<text text-anchor="start" x="544.977" y="-726.119" font-family="Times,serif" font-size="14.00">index</text>
<text text-anchor="start" x="544.977" y="-709.319" font-family="Times,serif" font-size="14.00">new</text>
<text text-anchor="start" x="544.977" y="-692.519" font-family="Times,serif" font-size="14.00">show</text>
<polyline fill="none" stroke="black" points="536.977,-685.719 746.612,-685.719 "/>
<polyline fill="none" stroke="black" points="536.977,-661.719 746.612,-661.719 "/>
<text text-anchor="start" x="544.977" y="-643.719" font-family="Times,serif" font-size="14.00">_layout</text>
<text text-anchor="start" x="544.977" y="-626.919" font-family="Times,serif" font-size="14.00">notify_mentors</text>
<text text-anchor="start" x="544.977" y="-610.119" font-family="Times,serif" font-size="14.00">notify_students</text>
</g>
<!-- ApplicationController&#45;&gt;NotificationsController -->
<g id="edge4" class="edge"><title>ApplicationController&#45;&gt;NotificationsController</title>
<path fill="none" stroke="black" d="M462.816,-498.726C482.591,-520.227 503.728,-543.442 523.054,-565.139 532.866,-576.156 543.051,-587.74 553.147,-599.318"/>
<polyline fill="none" stroke="black" points="556.567,-603.243 553.282,-599.473 "/>
</g>
<!-- RankingsController -->
<g id="node7" class="node"><title>RankingsController</title>
<path fill="none" stroke="black" d="M16.5727,-629.451C16.5727,-629.451 202.207,-629.451 202.207,-629.451 208.207,-629.451 214.207,-635.451 214.207,-641.451 214.207,-641.451 214.207,-833.451 214.207,-833.451 214.207,-839.451 208.207,-845.451 202.207,-845.451 202.207,-845.451 16.5727,-845.451 16.5727,-845.451 10.5727,-845.451 4.5727,-839.451 4.5727,-833.451 4.5727,-833.451 4.5727,-641.451 4.5727,-641.451 4.5727,-635.451 10.5727,-629.451 16.5727,-629.451"/>
<text text-anchor="middle" x="109.39" y="-827.451" font-family="Times,serif" font-size="14.00">RankingsController</text>
<polyline fill="none" stroke="black" points="4.5727,-820.651 214.207,-820.651 "/>
<text text-anchor="start" x="12.5727" y="-802.651" font-family="Times,serif" font-size="14.00">_one_time_conditions_valid_188?</text>
<text text-anchor="start" x="12.5727" y="-785.851" font-family="Times,serif" font-size="14.00">_one_time_conditions_valid_192?</text>
<text text-anchor="start" x="12.5727" y="-769.051" font-family="Times,serif" font-size="14.00">destroy</text>
<text text-anchor="start" x="12.5727" y="-752.251" font-family="Times,serif" font-size="14.00">index</text>
<text text-anchor="start" x="12.5727" y="-735.451" font-family="Times,serif" font-size="14.00">new</text>
<text text-anchor="start" x="12.5727" y="-718.651" font-family="Times,serif" font-size="14.00">update_ranks</text>
<polyline fill="none" stroke="black" points="4.5727,-711.851 214.207,-711.851 "/>
<polyline fill="none" stroke="black" points="4.5727,-687.851 214.207,-687.851 "/>
<text text-anchor="start" x="12.5727" y="-669.851" font-family="Times,serif" font-size="14.00">_layout</text>
<text text-anchor="start" x="12.5727" y="-653.051" font-family="Times,serif" font-size="14.00">authorize_mentor!</text>
<text text-anchor="start" x="12.5727" y="-636.251" font-family="Times,serif" font-size="14.00">find_student</text>
</g>
<!-- ApplicationController&#45;&gt;RankingsController -->
<g id="edge5" class="edge"><title>ApplicationController&#45;&gt;RankingsController</title>
<path fill="none" stroke="black" d="M306.032,-498.883C286.209,-520.178 265.242,-543.256 246.384,-565.139 229.895,-584.274 212.789,-605.014 196.483,-625.256"/>
<polyline fill="none" stroke="black" points="193.233,-629.296 196.367,-625.4 "/>
</g>
<!-- StudentrankingsController -->
<g id="node8" class="node"><title>StudentrankingsController</title>
<path fill="none" stroke="black" d="M61.625,-0.5C61.625,-0.5 247.26,-0.5 247.26,-0.5 253.26,-0.5 259.26,-6.5 259.26,-12.5 259.26,-12.5 259.26,-204.5 259.26,-204.5 259.26,-210.5 253.26,-216.5 247.26,-216.5 247.26,-216.5 61.625,-216.5 61.625,-216.5 55.625,-216.5 49.625,-210.5 49.625,-204.5 49.625,-204.5 49.625,-12.5 49.625,-12.5 49.625,-6.5 55.625,-0.5 61.625,-0.5"/>
<text text-anchor="middle" x="154.442" y="-198.5" font-family="Times,serif" font-size="14.00">StudentrankingsController</text>
<polyline fill="none" stroke="black" points="49.625,-191.7 259.26,-191.7 "/>
<text text-anchor="start" x="57.625" y="-173.7" font-family="Times,serif" font-size="14.00">_one_time_conditions_valid_198?</text>
<text text-anchor="start" x="57.625" y="-156.9" font-family="Times,serif" font-size="14.00">_one_time_conditions_valid_202?</text>
<text text-anchor="start" x="57.625" y="-140.1" font-family="Times,serif" font-size="14.00">destroy</text>
<text text-anchor="start" x="57.625" y="-123.3" font-family="Times,serif" font-size="14.00">index</text>
<text text-anchor="start" x="57.625" y="-106.5" font-family="Times,serif" font-size="14.00">new</text>
<text text-anchor="start" x="57.625" y="-89.7" font-family="Times,serif" font-size="14.00">update_ranks</text>
<polyline fill="none" stroke="black" points="49.625,-82.9 259.26,-82.9 "/>
<polyline fill="none" stroke="black" points="49.625,-58.9 259.26,-58.9 "/>
<text text-anchor="start" x="57.625" y="-40.9" font-family="Times,serif" font-size="14.00">_layout</text>
<text text-anchor="start" x="57.625" y="-24.1" font-family="Times,serif" font-size="14.00">authorize_mentor!</text>
<text text-anchor="start" x="57.625" y="-7.3" font-family="Times,serif" font-size="14.00">find_mentor</text>
</g>
<!-- ApplicationController&#45;&gt;StudentrankingsController -->
<g id="edge6" class="edge"><title>ApplicationController&#45;&gt;StudentrankingsController</title>
<path fill="none" stroke="black" d="M323.097,-332.693C297.159,-298.213 266.673,-257.688 238.806,-220.645"/>
<polyline fill="none" stroke="black" points="235.77,-216.61 238.776,-220.605 "/>
</g>
<!-- StudentsController -->
<g id="node9" class="node"><title>StudentsController</title>
<path fill="none" stroke="black" d="M523.987,-156.505C523.987,-156.505 775.705,-156.505 775.705,-156.505 781.705,-156.505 787.705,-162.505 787.705,-168.505 787.705,-168.505 787.705,-511.705 787.705,-511.705 787.705,-517.705 781.705,-523.705 775.705,-523.705 775.705,-523.705 523.987,-523.705 523.987,-523.705 517.987,-523.705 511.987,-517.705 511.987,-511.705 511.987,-511.705 511.987,-168.505 511.987,-168.505 511.987,-162.505 517.987,-156.505 523.987,-156.505"/>
<text text-anchor="middle" x="649.846" y="-505.705" font-family="Times,serif" font-size="14.00">StudentsController</text>
<polyline fill="none" stroke="black" points="511.987,-498.905 787.705,-498.905 "/>
<text text-anchor="start" x="519.987" y="-480.905" font-family="Times,serif" font-size="14.00">_one_time_conditions_valid_204?</text>
<text text-anchor="start" x="519.987" y="-464.105" font-family="Times,serif" font-size="14.00">_one_time_conditions_valid_208?</text>
<text text-anchor="start" x="519.987" y="-447.305" font-family="Times,serif" font-size="14.00">_one_time_conditions_valid_212?</text>
<text text-anchor="start" x="519.987" y="-430.505" font-family="Times,serif" font-size="14.00">_one_time_conditions_valid_214?</text>
<text text-anchor="start" x="519.987" y="-413.705" font-family="Times,serif" font-size="14.00">create</text>
<text text-anchor="start" x="519.987" y="-396.905" font-family="Times,serif" font-size="14.00">destroy</text>
<text text-anchor="start" x="519.987" y="-380.105" font-family="Times,serif" font-size="14.00">edit</text>
<text text-anchor="start" x="519.987" y="-363.305" font-family="Times,serif" font-size="14.00">index</text>
<text text-anchor="start" x="519.987" y="-346.505" font-family="Times,serif" font-size="14.00">new</text>
<text text-anchor="start" x="519.987" y="-329.705" font-family="Times,serif" font-size="14.00">rankings</text>
<text text-anchor="start" x="519.987" y="-312.905" font-family="Times,serif" font-size="14.00">show</text>
<text text-anchor="start" x="519.987" y="-296.105" font-family="Times,serif" font-size="14.00">thanks</text>
<text text-anchor="start" x="519.987" y="-279.305" font-family="Times,serif" font-size="14.00">update</text>
<polyline fill="none" stroke="black" points="511.987,-272.505 787.705,-272.505 "/>
<polyline fill="none" stroke="black" points="511.987,-248.505 787.705,-248.505 "/>
<text text-anchor="start" x="519.987" y="-230.505" font-family="Times,serif" font-size="14.00">_layout</text>
<text text-anchor="start" x="519.987" y="-213.705" font-family="Times,serif" font-size="14.00">authorizes_admins_or_a_student!</text>
<text text-anchor="start" x="519.987" y="-196.905" font-family="Times,serif" font-size="14.00">authorizes_admins_or_mentors_or_a_student!</text>
<text text-anchor="start" x="519.987" y="-180.105" font-family="Times,serif" font-size="14.00">find_student</text>
<text text-anchor="start" x="519.987" y="-163.305" font-family="Times,serif" font-size="14.00">update_student</text>
</g>
<!-- ApplicationController&#45;&gt;StudentsController -->
<g id="edge7" class="edge"><title>ApplicationController&#45;&gt;StudentsController</title>
<path fill="none" stroke="black" d="M490.839,-385.71C496.127,-384.193 501.475,-382.659 506.847,-381.118"/>
<polyline fill="none" stroke="black" points="511.786,-379.702 506.98,-381.08 "/>
</g>
</g>
</svg>
