<?xml version="1.0" encoding="UTF-8" standalone="no"?>
<!DOCTYPE svg PUBLIC "-//W3C//DTD SVG 1.1//EN"
 "http://www.w3.org/Graphics/SVG/1.1/DTD/svg11.dtd">
<!-- Generated by graphviz version 2.34.0 (20131025.1729)
 -->
<!-- Title: controllers_diagram Pages: 1 -->
<svg width="635pt" height="364pt"
 viewBox="0.00 0.00 635.38 364.00" xmlns="http://www.w3.org/2000/svg" xmlns:xlink="http://www.w3.org/1999/xlink">
<g id="graph0" class="graph" transform="scale(1 1) rotate(0) translate(4 360)">
<title>controllers_diagram</title>
<polygon fill="white" stroke="white" points="-4,4 -4,-360 631.375,-360 631.375,4 -4,4"/>
<!-- _diagram_info -->
<g id="node1" class="node"><title>_diagram_info</title>
<text text-anchor="start" x="428" y="-339" font-family="Times,serif" font-size="13.00">Controllers diagram</text>
<text text-anchor="start" x="428" y="-323.4" font-family="Times,serif" font-size="13.00">Date: Dec 04 2013 &#45; 11:35</text>
<text text-anchor="start" x="428" y="-307.8" font-family="Times,serif" font-size="13.00">Migration version: 20131204042258</text>
<text text-anchor="start" x="428" y="-292.2" font-family="Times,serif" font-size="13.00">Generated by RailRoady 1.1.1</text>
<text text-anchor="start" x="428" y="-276.6" font-family="Times,serif" font-size="13.00">http://railroady.prestonlee.com</text>
</g>
<!-- ApplicationController -->
<g id="node2" class="node"><title>ApplicationController</title>
<ellipse fill="none" stroke="black" cx="244.687" cy="-120.182" rx="96.1448" ry="18"/>
<text text-anchor="middle" x="244.687" y="-114.582" font-family="Times,serif" font-size="14.00">ApplicationController</text>
</g>
<!-- CampsController -->
<g id="node3" class="node"><title>CampsController</title>
<ellipse fill="none" stroke="black" cx="407.619" cy="-43.8144" rx="77.6107" ry="18"/>
<text text-anchor="middle" x="407.619" y="-38.2144" font-family="Times,serif" font-size="14.00">CampsController</text>
</g>
<!-- ApplicationController&#45;&gt;CampsController -->
<g id="edge1" class="edge"><title>ApplicationController&#45;&gt;CampsController</title>
<path fill="none" stroke="black" d="M280.443,-103.423C306.478,-91.2205 341.72,-74.7018 368.504,-62.1482"/>
<polyline fill="none" stroke="black" points="373.064,-60.0108 368.536,-62.1329 "/>
</g>
<!-- HomeController -->
<g id="node4" class="node"><title>HomeController</title>
<ellipse fill="none" stroke="black" cx="244.667" cy="-18" rx="74.1605" ry="18"/>
<text text-anchor="middle" x="244.667" y="-12.4" font-family="Times,serif" font-size="14.00">HomeController</text>
</g>
<!-- ApplicationController&#45;&gt;HomeController -->
<g id="edge2" class="edge"><title>ApplicationController&#45;&gt;HomeController</title>
<path fill="none" stroke="black" d="M244.684,-101.914C244.68,-85.0588 244.675,-59.9378 244.672,-41.5752"/>
<polyline fill="none" stroke="black" points="244.67,-36.11 244.672,-41.11 "/>
</g>
<!-- MentorsController -->
<g id="node5" class="node"><title>MentorsController</title>
<ellipse fill="none" stroke="black" cx="84.5266" cy="-196.687" rx="82.8333" ry="18"/>
<text text-anchor="middle" x="84.5266" y="-191.087" font-family="Times,serif" font-size="14.00">MentorsController</text>
</g>
<!-- ApplicationController&#45;&gt;MentorsController -->
<g id="edge3" class="edge"><title>ApplicationController&#45;&gt;MentorsController</title>
<path fill="none" stroke="black" d="M209.539,-136.972C184.227,-149.063 150.059,-165.384 123.841,-177.908"/>
<polyline fill="none" stroke="black" points="119.042,-180.2 123.554,-178.045 "/>
</g>
<!-- MentorshipsController -->
<g id="node6" class="node"><title>MentorshipsController</title>
<ellipse fill="none" stroke="black" cx="408.143" cy="-196.249" rx="99.0293" ry="18"/>
<text text-anchor="middle" x="408.143" y="-190.649" font-family="Times,serif" font-size="14.00">MentorshipsController</text>
</g>
<!-- ApplicationController&#45;&gt;MentorshipsController -->
<g id="edge4" class="edge"><title>ApplicationController&#45;&gt;MentorshipsController</title>
<path fill="none" stroke="black" d="M280.963,-137.064C306.464,-148.931 340.62,-164.826 367.114,-177.156"/>
<polyline fill="none" stroke="black" points="371.968,-179.415 367.435,-177.305 "/>
</g>
<!-- ReviewsController -->
<g id="node7" class="node"><title>ReviewsController</title>
<ellipse fill="none" stroke="black" cx="246.026" cy="-222.378" rx="83.974" ry="18"/>
<text text-anchor="middle" x="246.026" y="-216.778" font-family="Times,serif" font-size="14.00">ReviewsController</text>
</g>
<!-- ApplicationController&#45;&gt;ReviewsController -->
<g id="edge5" class="edge"><title>ApplicationController&#45;&gt;ReviewsController</title>
<path fill="none" stroke="black" d="M244.927,-138.453C245.147,-155.31 245.476,-180.435 245.717,-198.799"/>
<polyline fill="none" stroke="black" points="245.789,-204.265 245.723,-199.266 "/>
</g>
<!-- StudentsController -->
<g id="node8" class="node"><title>StudentsController</title>
<ellipse fill="none" stroke="black" cx="83.9964" cy="-44.1251" rx="83.9928" ry="18"/>
<text text-anchor="middle" x="83.9964" y="-38.5251" font-family="Times,serif" font-size="14.00">StudentsController</text>
</g>
<!-- ApplicationController&#45;&gt;StudentsController -->
<g id="edge6" class="edge"><title>ApplicationController&#45;&gt;StudentsController</title>
<path fill="none" stroke="black" d="M209.025,-103.303C183.695,-91.3138 149.677,-75.2126 123.52,-62.8321"/>
<polyline fill="none" stroke="black" points="118.731,-60.5655 123.25,-62.7046 "/>
</g>
</g>
</svg>
