<?xml version="1.0" encoding="UTF-8" standalone="no"?>
<!DOCTYPE svg PUBLIC "-//W3C//DTD SVG 1.1//EN"
 "http://www.w3.org/Graphics/SVG/1.1/DTD/svg11.dtd">
<!-- Generated by graphviz version 2.34.0 (20131025.1729)
 -->
<!-- Title: controllers_diagram Pages: 1 -->
<svg width="827pt" height="757pt"
 viewBox="0.00 0.00 827.38 757.00" xmlns="http://www.w3.org/2000/svg" xmlns:xlink="http://www.w3.org/1999/xlink">
<g id="graph0" class="graph" transform="scale(1 1) rotate(0) translate(4 753)">
<title>controllers_diagram</title>
<polygon fill="white" stroke="white" points="-4,4 -4,-753 823.375,-753 823.375,4 -4,4"/>
<!-- _diagram_info -->
<g id="node1" class="node"><title>_diagram_info</title>
<text text-anchor="start" x="620" y="-732" font-family="Times,serif" font-size="13.00">Controllers diagram</text>
<text text-anchor="start" x="620" y="-716.4" font-family="Times,serif" font-size="13.00">Date: Dec 04 2013 &#45; 11:35</text>
<text text-anchor="start" x="620" y="-700.8" font-family="Times,serif" font-size="13.00">Migration version: 20131204042258</text>
<text text-anchor="start" x="620" y="-685.2" font-family="Times,serif" font-size="13.00">Generated by RailRoady 1.1.1</text>
<text text-anchor="start" x="620" y="-669.6" font-family="Times,serif" font-size="13.00">http://railroady.prestonlee.com</text>
</g>
<!-- ApplicationController -->
<g id="node2" class="node"><title>ApplicationController</title>
<path fill="none" stroke="black" d="M227.013,-251.587C227.013,-251.587 412.648,-251.587 412.648,-251.587 418.648,-251.587 424.648,-257.587 424.648,-263.587 424.648,-263.587 424.648,-337.987 424.648,-337.987 424.648,-343.987 418.648,-349.987 412.648,-349.987 412.648,-349.987 227.013,-349.987 227.013,-349.987 221.013,-349.987 215.013,-343.987 215.013,-337.987 215.013,-337.987 215.013,-263.587 215.013,-263.587 215.013,-257.587 221.013,-251.587 227.013,-251.587"/>
<text text-anchor="middle" x="319.83" y="-331.987" font-family="Times,serif" font-size="14.00">ApplicationController</text>
<polyline fill="none" stroke="black" points="215.013,-325.187 424.648,-325.187 "/>
<text text-anchor="start" x="223.013" y="-307.187" font-family="Times,serif" font-size="14.00">_one_time_conditions_valid_156?</text>
<polyline fill="none" stroke="black" points="215.013,-300.387 424.648,-300.387 "/>
<polyline fill="none" stroke="black" points="215.013,-276.387 424.648,-276.387 "/>
<text text-anchor="start" x="223.013" y="-258.387" font-family="Times,serif" font-size="14.00">_layout</text>
</g>
<!-- CampsController -->
<g id="node3" class="node"><title>CampsController</title>
<path fill="none" stroke="black" d="M489.788,-30.5724C489.788,-30.5724 578.222,-30.5724 578.222,-30.5724 584.222,-30.5724 590.222,-36.5724 590.222,-42.5724 590.222,-42.5724 590.222,-217.772 590.222,-217.772 590.222,-223.772 584.222,-229.772 578.222,-229.772 578.222,-229.772 489.788,-229.772 489.788,-229.772 483.788,-229.772 477.788,-223.772 477.788,-217.772 477.788,-217.772 477.788,-42.5724 477.788,-42.5724 477.788,-36.5724 483.788,-30.5724 489.788,-30.5724"/>
<text text-anchor="middle" x="534.005" y="-211.772" font-family="Times,serif" font-size="14.00">CampsController</text>
<polyline fill="none" stroke="black" points="477.788,-204.972 590.222,-204.972 "/>
<text text-anchor="start" x="485.788" y="-186.972" font-family="Times,serif" font-size="14.00">create</text>
<text text-anchor="start" x="485.788" y="-170.172" font-family="Times,serif" font-size="14.00">destroy</text>
<text text-anchor="start" x="485.788" y="-153.372" font-family="Times,serif" font-size="14.00">edit</text>
<text text-anchor="start" x="485.788" y="-136.572" font-family="Times,serif" font-size="14.00">index</text>
<text text-anchor="start" x="485.788" y="-119.772" font-family="Times,serif" font-size="14.00">new</text>
<text text-anchor="start" x="485.788" y="-102.972" font-family="Times,serif" font-size="14.00">show</text>
<text text-anchor="start" x="485.788" y="-86.1724" font-family="Times,serif" font-size="14.00">update</text>
<polyline fill="none" stroke="black" points="477.788,-79.3724 590.222,-79.3724 "/>
<polyline fill="none" stroke="black" points="477.788,-55.3724 590.222,-55.3724 "/>
<text text-anchor="start" x="485.788" y="-37.3724" font-family="Times,serif" font-size="14.00">_layout</text>
</g>
<!-- ApplicationController&#45;&gt;CampsController -->
<g id="edge1" class="edge"><title>ApplicationController&#45;&gt;CampsController</title>
<path fill="none" stroke="black" d="M381.778,-251.438C410.628,-228.457 444.827,-201.213 473.494,-178.376"/>
<polyline fill="none" stroke="black" points="477.683,-175.039 473.772,-178.155 "/>
</g>
<!-- HomeController -->
<g id="node4" class="node"><title>HomeController</title>
<path fill="none" stroke="black" d="M277.003,-0.5C277.003,-0.5 360.762,-0.5 360.762,-0.5 366.762,-0.5 372.762,-6.5 372.762,-12.5 372.762,-12.5 372.762,-103.7 372.762,-103.7 372.762,-109.7 366.762,-115.7 360.762,-115.7 360.762,-115.7 277.003,-115.7 277.003,-115.7 271.003,-115.7 265.003,-109.7 265.003,-103.7 265.003,-103.7 265.003,-12.5 265.003,-12.5 265.003,-6.5 271.003,-0.5 277.003,-0.5"/>
<text text-anchor="middle" x="318.882" y="-97.7" font-family="Times,serif" font-size="14.00">HomeController</text>
<polyline fill="none" stroke="black" points="265.003,-90.9 372.762,-90.9 "/>
<text text-anchor="start" x="273.003" y="-72.9" font-family="Times,serif" font-size="14.00">index</text>
<text text-anchor="start" x="273.003" y="-56.1" font-family="Times,serif" font-size="14.00">need_approval</text>
<polyline fill="none" stroke="black" points="265.003,-49.3 372.762,-49.3 "/>
<polyline fill="none" stroke="black" points="265.003,-25.3 372.762,-25.3 "/>
<text text-anchor="start" x="273.003" y="-7.3" font-family="Times,serif" font-size="14.00">_layout</text>
</g>
<!-- ApplicationController&#45;&gt;HomeController -->
<g id="edge2" class="edge"><title>ApplicationController&#45;&gt;HomeController</title>
<path fill="none" stroke="black" d="M319.637,-251.383C319.491,-213.848 319.288,-161.938 319.129,-121.365"/>
<polyline fill="none" stroke="black" points="319.108,-115.971 319.128,-120.971 "/>
</g>
<!-- MentorsController -->
<g id="node5" class="node"><title>MentorsController</title>
<path fill="none" stroke="black" d="M13.0909,-363.861C13.0909,-363.861 198.726,-363.861 198.726,-363.861 204.726,-363.861 210.726,-369.861 210.726,-375.861 210.726,-375.861 210.726,-567.861 210.726,-567.861 210.726,-573.861 204.726,-579.861 198.726,-579.861 198.726,-579.861 13.0909,-579.861 13.0909,-579.861 7.09089,-579.861 1.09089,-573.861 1.09089,-567.861 1.09089,-567.861 1.09089,-375.861 1.09089,-375.861 1.09089,-369.861 7.09089,-363.861 13.0909,-363.861"/>
<text text-anchor="middle" x="105.908" y="-561.861" font-family="Times,serif" font-size="14.00">MentorsController</text>
<polyline fill="none" stroke="black" points="1.09089,-555.061 210.726,-555.061 "/>
<text text-anchor="start" x="9.09089" y="-537.061" font-family="Times,serif" font-size="14.00">_one_time_conditions_valid_170?</text>
<text text-anchor="start" x="9.09089" y="-520.261" font-family="Times,serif" font-size="14.00">create</text>
<text text-anchor="start" x="9.09089" y="-503.461" font-family="Times,serif" font-size="14.00">destroy</text>
<text text-anchor="start" x="9.09089" y="-486.661" font-family="Times,serif" font-size="14.00">edit</text>
<text text-anchor="start" x="9.09089" y="-469.861" font-family="Times,serif" font-size="14.00">index</text>
<text text-anchor="start" x="9.09089" y="-453.061" font-family="Times,serif" font-size="14.00">new</text>
<text text-anchor="start" x="9.09089" y="-436.261" font-family="Times,serif" font-size="14.00">show</text>
<text text-anchor="start" x="9.09089" y="-419.461" font-family="Times,serif" font-size="14.00">update</text>
<polyline fill="none" stroke="black" points="1.09089,-412.661 210.726,-412.661 "/>
<polyline fill="none" stroke="black" points="1.09089,-388.661 210.726,-388.661 "/>
<text text-anchor="start" x="9.09089" y="-370.661" font-family="Times,serif" font-size="14.00">_layout</text>
</g>
<!-- ApplicationController&#45;&gt;MentorsController -->
<g id="edge3" class="edge"><title>ApplicationController&#45;&gt;MentorsController</title>
<path fill="none" stroke="black" d="M258.242,-350.039C244.703,-360.866 229.974,-372.645 215.185,-384.472"/>
<polyline fill="none" stroke="black" points="211.014,-387.808 214.919,-384.685 "/>
</g>
<!-- MentorshipsController -->
<g id="node6" class="node"><title>MentorshipsController</title>
<path fill="none" stroke="black" d="M475.312,-370.263C475.312,-370.263 594.857,-370.263 594.857,-370.263 600.857,-370.263 606.857,-376.263 606.857,-382.263 606.857,-382.263 606.857,-557.463 606.857,-557.463 606.857,-563.463 600.857,-569.463 594.857,-569.463 594.857,-569.463 475.312,-569.463 475.312,-569.463 469.312,-569.463 463.312,-563.463 463.312,-557.463 463.312,-557.463 463.312,-382.263 463.312,-382.263 463.312,-376.263 469.312,-370.263 475.312,-370.263"/>
<text text-anchor="middle" x="535.085" y="-551.463" font-family="Times,serif" font-size="14.00">MentorshipsController</text>
<polyline fill="none" stroke="black" points="463.312,-544.663 606.857,-544.663 "/>
<text text-anchor="start" x="471.312" y="-526.663" font-family="Times,serif" font-size="14.00">create</text>
<text text-anchor="start" x="471.312" y="-509.863" font-family="Times,serif" font-size="14.00">destroy</text>
<text text-anchor="start" x="471.312" y="-493.063" font-family="Times,serif" font-size="14.00">edit</text>
<text text-anchor="start" x="471.312" y="-476.263" font-family="Times,serif" font-size="14.00">index</text>
<text text-anchor="start" x="471.312" y="-459.463" font-family="Times,serif" font-size="14.00">new</text>
<text text-anchor="start" x="471.312" y="-442.663" font-family="Times,serif" font-size="14.00">show</text>
<text text-anchor="start" x="471.312" y="-425.863" font-family="Times,serif" font-size="14.00">update</text>
<polyline fill="none" stroke="black" points="463.312,-419.063 606.857,-419.063 "/>
<polyline fill="none" stroke="black" points="463.312,-395.063 606.857,-395.063 "/>
<text text-anchor="start" x="471.312" y="-377.063" font-family="Times,serif" font-size="14.00">_layout</text>
</g>
<!-- ApplicationController&#45;&gt;MentorshipsController -->
<g id="edge4" class="edge"><title>ApplicationController&#45;&gt;MentorshipsController</title>
<path fill="none" stroke="black" d="M382.669,-350.145C406.581,-368.927 434.082,-390.528 459.085,-410.167"/>
<polyline fill="none" stroke="black" points="463.075,-413.301 459.143,-410.213 "/>
</g>
<!-- ReviewsController -->
<g id="node7" class="node"><title>ReviewsController</title>
<path fill="none" stroke="black" d="M229.431,-427.259C229.431,-427.259 415.066,-427.259 415.066,-427.259 421.066,-427.259 427.066,-433.259 427.066,-439.259 427.066,-439.259 427.066,-648.059 427.066,-648.059 427.066,-654.059 421.066,-660.059 415.066,-660.059 415.066,-660.059 229.431,-660.059 229.431,-660.059 223.431,-660.059 217.431,-654.059 217.431,-648.059 217.431,-648.059 217.431,-439.259 217.431,-439.259 217.431,-433.259 223.431,-427.259 229.431,-427.259"/>
<text text-anchor="middle" x="322.249" y="-642.059" font-family="Times,serif" font-size="14.00">ReviewsController</text>
<polyline fill="none" stroke="black" points="217.431,-635.259 427.066,-635.259 "/>
<text text-anchor="start" x="225.431" y="-617.259" font-family="Times,serif" font-size="14.00">_one_time_conditions_valid_178?</text>
<text text-anchor="start" x="225.431" y="-600.459" font-family="Times,serif" font-size="14.00">create</text>
<text text-anchor="start" x="225.431" y="-583.659" font-family="Times,serif" font-size="14.00">destroy</text>
<text text-anchor="start" x="225.431" y="-566.859" font-family="Times,serif" font-size="14.00">edit</text>
<text text-anchor="start" x="225.431" y="-550.059" font-family="Times,serif" font-size="14.00">index</text>
<text text-anchor="start" x="225.431" y="-533.259" font-family="Times,serif" font-size="14.00">new</text>
<text text-anchor="start" x="225.431" y="-516.459" font-family="Times,serif" font-size="14.00">show</text>
<text text-anchor="start" x="225.431" y="-499.659" font-family="Times,serif" font-size="14.00">update</text>
<polyline fill="none" stroke="black" points="217.431,-492.859 427.066,-492.859 "/>
<polyline fill="none" stroke="black" points="217.431,-468.859 427.066,-468.859 "/>
<text text-anchor="start" x="225.431" y="-450.859" font-family="Times,serif" font-size="14.00">_layout</text>
<text text-anchor="start" x="225.431" y="-434.059" font-family="Times,serif" font-size="14.00">set_mentor</text>
</g>
<!-- ApplicationController&#45;&gt;ReviewsController -->
<g id="edge5" class="edge"><title>ApplicationController&#45;&gt;ReviewsController</title>
<path fill="none" stroke="black" d="M320.323,-350.229C320.531,-371.163 320.784,-396.565 321.037,-421.981"/>
<polyline fill="none" stroke="black" points="321.088,-427.063 321.038,-422.063 "/>
</g>
<!-- StudentsController -->
<g id="node8" class="node"><title>StudentsController</title>
<path fill="none" stroke="black" d="M12,-23.513C12,-23.513 197.635,-23.513 197.635,-23.513 203.635,-23.513 209.635,-29.513 209.635,-35.513 209.635,-35.513 209.635,-227.513 209.635,-227.513 209.635,-233.513 203.635,-239.513 197.635,-239.513 197.635,-239.513 12,-239.513 12,-239.513 6,-239.513 0,-233.513 0,-227.513 0,-227.513 0,-35.513 0,-35.513 0,-29.513 6,-23.513 12,-23.513"/>
<text text-anchor="middle" x="104.817" y="-221.513" font-family="Times,serif" font-size="14.00">StudentsController</text>
<polyline fill="none" stroke="black" points="0,-214.713 209.635,-214.713 "/>
<text text-anchor="start" x="8" y="-196.713" font-family="Times,serif" font-size="14.00">_one_time_conditions_valid_180?</text>
<text text-anchor="start" x="8" y="-179.913" font-family="Times,serif" font-size="14.00">create</text>
<text text-anchor="start" x="8" y="-163.113" font-family="Times,serif" font-size="14.00">destroy</text>
<text text-anchor="start" x="8" y="-146.313" font-family="Times,serif" font-size="14.00">edit</text>
<text text-anchor="start" x="8" y="-129.513" font-family="Times,serif" font-size="14.00">index</text>
<text text-anchor="start" x="8" y="-112.713" font-family="Times,serif" font-size="14.00">new</text>
<text text-anchor="start" x="8" y="-95.913" font-family="Times,serif" font-size="14.00">show</text>
<text text-anchor="start" x="8" y="-79.113" font-family="Times,serif" font-size="14.00">update</text>
<polyline fill="none" stroke="black" points="0,-72.313 209.635,-72.313 "/>
<polyline fill="none" stroke="black" points="0,-48.313 209.635,-48.313 "/>
<text text-anchor="start" x="8" y="-30.313" font-family="Times,serif" font-size="14.00">_layout</text>
</g>
<!-- ApplicationController&#45;&gt;StudentsController -->
<g id="edge6" class="edge"><title>ApplicationController&#45;&gt;StudentsController</title>
<path fill="none" stroke="black" d="M257.062,-251.371C243.466,-240.667 228.708,-229.049 213.909,-217.398"/>
<polyline fill="none" stroke="black" points="209.735,-214.112 213.664,-217.205 "/>
</g>
</g>
</svg>
