<?xml version="1.0" encoding="UTF-8" standalone="no"?>
<!DOCTYPE svg PUBLIC "-//W3C//DTD SVG 1.1//EN"
 "http://www.w3.org/Graphics/SVG/1.1/DTD/svg11.dtd">
<!-- Generated by graphviz version 2.34.0 (20131025.1729)
 -->
<!-- Title: controllers_diagram Pages: 1 -->
<svg width="761pt" height="406pt"
 viewBox="0.00 0.00 760.90 406.00" xmlns="http://www.w3.org/2000/svg" xmlns:xlink="http://www.w3.org/1999/xlink">
<g id="graph0" class="graph" transform="scale(1 1) rotate(0) translate(4 402)">
<title>controllers_diagram</title>
<polygon fill="white" stroke="white" points="-4,4 -4,-402 756.899,-402 756.899,4 -4,4"/>
<!-- _diagram_info -->
<g id="node1" class="node"><title>_diagram_info</title>
<text text-anchor="start" x="554" y="-381" font-family="Times,serif" font-size="13.00">Controllers diagram</text>
<text text-anchor="start" x="554" y="-365.4" font-family="Times,serif" font-size="13.00">Date: Nov 10 2013 &#45; 23:14</text>
<text text-anchor="start" x="554" y="-349.8" font-family="Times,serif" font-size="13.00">Migration version: 20130627045611</text>
<text text-anchor="start" x="554" y="-334.2" font-family="Times,serif" font-size="13.00">Generated by RailRoady 1.1.1</text>
<text text-anchor="start" x="554" y="-318.6" font-family="Times,serif" font-size="13.00">http://railroady.prestonlee.com</text>
</g>
<!-- Admin::UsersController -->
<g id="node2" class="node"><title>Admin::UsersController</title>
<ellipse fill="none" stroke="black" cx="104.914" cy="-50.949" rx="104.827" ry="18"/>
<text text-anchor="middle" x="104.914" y="-45.349" font-family="Times,serif" font-size="14.00">Admin::UsersController</text>
</g>
<!-- ApplicationController -->
<g id="node3" class="node"><title>ApplicationController</title>
<ellipse fill="none" stroke="black" cx="329.677" cy="-161.855" rx="96.1448" ry="18"/>
<text text-anchor="middle" x="329.677" y="-156.255" font-family="Times,serif" font-size="14.00">ApplicationController</text>
</g>
<!-- ApplicationController&#45;&gt;Admin::UsersController -->
<g id="edge1" class="edge"><title>ApplicationController&#45;&gt;Admin::UsersController</title>
<path fill="none" stroke="black" d="M295.541,-145.011C254.78,-124.898 186.758,-91.334 143.948,-70.2101"/>
<polyline fill="none" stroke="black" points="139.372,-67.9518 143.855,-70.1643 "/>
</g>
<!-- HomeController -->
<g id="node4" class="node"><title>HomeController</title>
<ellipse fill="none" stroke="black" cx="468.358" cy="-40.4133" rx="74.1605" ry="18"/>
<text text-anchor="middle" x="468.358" y="-34.8133" font-family="Times,serif" font-size="14.00">HomeController</text>
</g>
<!-- ApplicationController&#45;&gt;HomeController -->
<g id="edge2" class="edge"><title>ApplicationController&#45;&gt;HomeController</title>
<path fill="none" stroke="black" d="M349.843,-144.197C374.903,-122.251 417.619,-84.8451 444.346,-61.4413"/>
<polyline fill="none" stroke="black" points="448.169,-58.0933 444.407,-61.3874 "/>
</g>
<!-- MentorsController -->
<g id="node5" class="node"><title>MentorsController</title>
<ellipse fill="none" stroke="black" cx="408.663" cy="-273.31" rx="82.8333" ry="18"/>
<text text-anchor="middle" x="408.663" y="-267.71" font-family="Times,serif" font-size="14.00">MentorsController</text>
</g>
<!-- ApplicationController&#45;&gt;MentorsController -->
<g id="edge3" class="edge"><title>ApplicationController&#45;&gt;MentorsController</title>
<path fill="none" stroke="black" d="M342.368,-179.762C356.128,-199.18 378.109,-230.196 392.951,-251.139"/>
<polyline fill="none" stroke="black" points="396.004,-255.447 393.113,-251.367 "/>
</g>
<!-- NotificationsController -->
<g id="node6" class="node"><title>NotificationsController</title>
<ellipse fill="none" stroke="black" cx="622.371" cy="-242.529" rx="100.745" ry="18"/>
<text text-anchor="middle" x="622.371" y="-236.929" font-family="Times,serif" font-size="14.00">NotificationsController</text>
</g>
<!-- ApplicationController&#45;&gt;NotificationsController -->
<g id="edge4" class="edge"><title>ApplicationController&#45;&gt;NotificationsController</title>
<path fill="none" stroke="black" d="M384.045,-176.84C434.654,-190.789 509.943,-211.541 562.307,-225.974"/>
<polyline fill="none" stroke="black" points="567.301,-227.351 562.481,-226.022 "/>
</g>
<!-- RankingsController -->
<g id="node7" class="node"><title>RankingsController</title>
<ellipse fill="none" stroke="black" cx="140.991" cy="-251.547" rx="87.425" ry="18"/>
<text text-anchor="middle" x="140.991" y="-245.947" font-family="Times,serif" font-size="14.00">RankingsController</text>
</g>
<!-- ApplicationController&#45;&gt;RankingsController -->
<g id="edge5" class="edge"><title>ApplicationController&#45;&gt;RankingsController</title>
<path fill="none" stroke="black" d="M294.187,-178.726C261.932,-194.058 214.397,-216.654 180.848,-232.601"/>
<polyline fill="none" stroke="black" points="176.003,-234.904 180.519,-232.758 "/>
</g>
<!-- StudentrankingsController -->
<g id="node8" class="node"><title>StudentrankingsController</title>
<ellipse fill="none" stroke="black" cx="277.563" cy="-18" rx="113.491" ry="18"/>
<text text-anchor="middle" x="277.563" y="-12.4" font-family="Times,serif" font-size="14.00">StudentrankingsController</text>
</g>
<!-- ApplicationController&#45;&gt;StudentrankingsController -->
<g id="edge6" class="edge"><title>ApplicationController&#45;&gt;StudentrankingsController</title>
<path fill="none" stroke="black" d="M323.077,-143.636C313.601,-117.478 296.148,-69.3022 285.826,-40.8106"/>
<polyline fill="none" stroke="black" points="284.11,-36.0714 285.813,-40.7725 "/>
</g>
<!-- StudentsController -->
<g id="node9" class="node"><title>StudentsController</title>
<ellipse fill="none" stroke="black" cx="645.605" cy="-43.2419" rx="83.9928" ry="18"/>
<text text-anchor="middle" x="645.605" y="-37.6419" font-family="Times,serif" font-size="14.00">StudentsController</text>
</g>
<!-- ApplicationController&#45;&gt;StudentsController -->
<g id="edge7" class="edge"><title>ApplicationController&#45;&gt;StudentsController</title>
<path fill="none" stroke="black" d="M372.614,-145.735C431.689,-123.555 537.644,-83.7752 598.726,-60.8423"/>
<polyline fill="none" stroke="black" points="603.769,-58.9489 599.088,-60.7064 "/>
</g>
</g>
</svg>
