<?xml version="1.0" encoding="UTF-8" standalone="no"?>
<!DOCTYPE svg PUBLIC "-//W3C//DTD SVG 1.1//EN"
 "http://www.w3.org/Graphics/SVG/1.1/DTD/svg11.dtd">
<!-- Generated by graphviz version 2.34.0 (20131025.1729)
 -->
<!-- Title: models_diagram Pages: 1 -->
<svg width="1014pt" height="1014pt"
 viewBox="0.00 0.00 1014.00 1014.00" xmlns="http://www.w3.org/2000/svg" xmlns:xlink="http://www.w3.org/1999/xlink">
<g id="graph0" class="graph" transform="scale(1 1) rotate(0) translate(4 1010)">
<title>models_diagram</title>
<polygon fill="white" stroke="white" points="-4,4 -4,-1010 1010,-1010 1010,4 -4,4"/>
<!-- _diagram_info -->
<g id="node1" class="node"><title>_diagram_info</title>
<text text-anchor="start" x="7.31226" y="-989" font-family="Times,serif" font-size="13.00">Models diagram</text>
<text text-anchor="start" x="7.31226" y="-973.4" font-family="Times,serif" font-size="13.00">Date: Dec 04 2013 &#45; 11:35</text>
<text text-anchor="start" x="7.31226" y="-957.8" font-family="Times,serif" font-size="13.00">Migration version: 20131204042258</text>
<text text-anchor="start" x="7.31226" y="-942.2" font-family="Times,serif" font-size="13.00">Generated by RailRoady 1.1.1</text>
<text text-anchor="start" x="7.31226" y="-926.6" font-family="Times,serif" font-size="13.00">http://railroady.prestonlee.com</text>
</g>
<!-- Camp -->
<g id="node2" class="node"><title>Camp</title>
<path fill="none" stroke="black" d="M885.495,-673.6C885.495,-673.6 994.505,-673.6 994.505,-673.6 1000.51,-673.6 1006.51,-679.6 1006.51,-685.6 1006.51,-685.6 1006.51,-778.4 1006.51,-778.4 1006.51,-784.4 1000.51,-790.4 994.505,-790.4 994.505,-790.4 885.495,-790.4 885.495,-790.4 879.495,-790.4 873.495,-784.4 873.495,-778.4 873.495,-778.4 873.495,-685.6 873.495,-685.6 873.495,-679.6 879.495,-673.6 885.495,-673.6"/>
<text text-anchor="middle" x="940" y="-772.4" font-family="Times,serif" font-size="14.00">Camp</text>
<polyline fill="none" stroke="black" points="873.495,-765.6 1006.51,-765.6 "/>
<text text-anchor="start" x="881.495" y="-747.6" font-family="Times,serif" font-size="14.00">id :integer</text>
<text text-anchor="start" x="881.495" y="-730.8" font-family="Times,serif" font-size="14.00">student_id :integer</text>
<text text-anchor="start" x="881.495" y="-714" font-family="Times,serif" font-size="14.00">description :string</text>
<text text-anchor="start" x="881.495" y="-697.2" font-family="Times,serif" font-size="14.00">created_at :datetime</text>
<text text-anchor="start" x="881.495" y="-680.4" font-family="Times,serif" font-size="14.00">updated_at :datetime</text>
</g>
<!-- Student -->
<g id="node6" class="node"><title>Student</title>
<path fill="none" stroke="black" d="M747.429,-154.4C747.429,-154.4 866.571,-154.4 866.571,-154.4 872.571,-154.4 878.571,-160.4 878.571,-166.4 878.571,-166.4 878.571,-309.6 878.571,-309.6 878.571,-315.6 872.571,-321.6 866.571,-321.6 866.571,-321.6 747.429,-321.6 747.429,-321.6 741.429,-321.6 735.429,-315.6 735.429,-309.6 735.429,-309.6 735.429,-166.4 735.429,-166.4 735.429,-160.4 741.429,-154.4 747.429,-154.4"/>
<text text-anchor="middle" x="807" y="-303.6" font-family="Times,serif" font-size="14.00">Student</text>
<polyline fill="none" stroke="black" points="735.429,-296.8 878.571,-296.8 "/>
<text text-anchor="start" x="743.429" y="-278.8" font-family="Times,serif" font-size="14.00">id :integer</text>
<text text-anchor="start" x="743.429" y="-262" font-family="Times,serif" font-size="14.00">camp_id :integer</text>
<text text-anchor="start" x="743.429" y="-245.2" font-family="Times,serif" font-size="14.00">name :string</text>
<text text-anchor="start" x="743.429" y="-228.4" font-family="Times,serif" font-size="14.00">profile :string</text>
<text text-anchor="start" x="743.429" y="-211.6" font-family="Times,serif" font-size="14.00">created_at :datetime</text>
<text text-anchor="start" x="743.429" y="-194.8" font-family="Times,serif" font-size="14.00">updated_at :datetime</text>
<text text-anchor="start" x="743.429" y="-178" font-family="Times,serif" font-size="14.00">user_id :integer</text>
<text text-anchor="start" x="743.429" y="-161.2" font-family="Times,serif" font-size="14.00">mentorship_id :integer</text>
</g>
<!-- Camp&#45;&gt;Student -->
<g id="edge1" class="edge"><title>Camp&#45;&gt;Student</title>
<path fill="none" stroke="#395624" d="M929.825,-665.492C917.202,-590.183 893.098,-463.392 859,-358 856.141,-349.164 852.856,-340.09 849.356,-331.085"/>
<ellipse fill="none" stroke="#395624" cx="930.503" cy="-669.57" rx="4.00001" ry="4.00001"/>
<polygon fill="#395624" stroke="#395624" points="849.334,-331.03 849.821,-320.074 847.487,-326.383 845.639,-321.737 845.639,-321.737 845.639,-321.737 847.487,-326.383 841.458,-323.4 849.334,-331.03 849.334,-331.03"/>
</g>
<!-- Mentor -->
<g id="node3" class="node"><title>Mentor</title>
<path fill="none" stroke="black" d="M178.429,-359C178.429,-359 297.571,-359 297.571,-359 303.571,-359 309.571,-365 309.571,-371 309.571,-371 309.571,-531 309.571,-531 309.571,-537 303.571,-543 297.571,-543 297.571,-543 178.429,-543 178.429,-543 172.429,-543 166.429,-537 166.429,-531 166.429,-531 166.429,-371 166.429,-371 166.429,-365 172.429,-359 178.429,-359"/>
<text text-anchor="middle" x="238" y="-525" font-family="Times,serif" font-size="14.00">Mentor</text>
<polyline fill="none" stroke="black" points="166.429,-518.2 309.571,-518.2 "/>
<text text-anchor="start" x="174.429" y="-500.2" font-family="Times,serif" font-size="14.00">id :integer</text>
<text text-anchor="start" x="174.429" y="-483.4" font-family="Times,serif" font-size="14.00">name :string</text>
<text text-anchor="start" x="174.429" y="-466.6" font-family="Times,serif" font-size="14.00">profile :string</text>
<text text-anchor="start" x="174.429" y="-449.8" font-family="Times,serif" font-size="14.00">active :boolean</text>
<text text-anchor="start" x="174.429" y="-433" font-family="Times,serif" font-size="14.00">capacity :integer</text>
<text text-anchor="start" x="174.429" y="-416.2" font-family="Times,serif" font-size="14.00">created_at :datetime</text>
<text text-anchor="start" x="174.429" y="-399.4" font-family="Times,serif" font-size="14.00">updated_at :datetime</text>
<text text-anchor="start" x="174.429" y="-382.6" font-family="Times,serif" font-size="14.00">user_id :integer</text>
<text text-anchor="start" x="174.429" y="-365.8" font-family="Times,serif" font-size="14.00">mentorship_id :integer</text>
</g>
<!-- Mentorship -->
<g id="node4" class="node"><title>Mentorship</title>
<path fill="none" stroke="black" d="M235.495,-0.6C235.495,-0.6 344.505,-0.6 344.505,-0.6 350.505,-0.6 356.505,-6.6 356.505,-12.6 356.505,-12.6 356.505,-105.4 356.505,-105.4 356.505,-111.4 350.505,-117.4 344.505,-117.4 344.505,-117.4 235.495,-117.4 235.495,-117.4 229.495,-117.4 223.495,-111.4 223.495,-105.4 223.495,-105.4 223.495,-12.6 223.495,-12.6 223.495,-6.6 229.495,-0.6 235.495,-0.6"/>
<text text-anchor="middle" x="290" y="-99.4" font-family="Times,serif" font-size="14.00">Mentorship</text>
<polyline fill="none" stroke="black" points="223.495,-92.6 356.505,-92.6 "/>
<text text-anchor="start" x="231.495" y="-74.6" font-family="Times,serif" font-size="14.00">id :integer</text>
<text text-anchor="start" x="231.495" y="-57.8" font-family="Times,serif" font-size="14.00">student_id :integer</text>
<text text-anchor="start" x="231.495" y="-41" font-family="Times,serif" font-size="14.00">mentor_id :integer</text>
<text text-anchor="start" x="231.495" y="-24.2" font-family="Times,serif" font-size="14.00">created_at :datetime</text>
<text text-anchor="start" x="231.495" y="-7.4" font-family="Times,serif" font-size="14.00">updated_at :datetime</text>
</g>
<!-- Mentor&#45;&gt;Mentorship -->
<g id="edge5" class="edge"><title>Mentor&#45;&gt;Mentorship</title>
<path fill="none" stroke="#c9bde3" d="M264.562,-350.699C266.62,-341.045 268.483,-331.363 270,-322 280.599,-256.564 285.61,-180.998 287.961,-127.885"/>
<ellipse fill="none" stroke="#c9bde3" cx="263.646" cy="-354.886" rx="4.00001" ry="4.00001"/>
<polygon fill="#c9bde3" stroke="#c9bde3" points="287.974,-127.563 292.893,-117.762 288.186,-122.567 288.397,-117.572 288.397,-117.572 288.397,-117.572 288.186,-122.567 283.901,-117.382 287.974,-127.563 287.974,-127.563"/>
</g>
<!-- Review -->
<g id="node5" class="node"><title>Review</title>
<path fill="none" stroke="black" d="M140.495,-171.2C140.495,-171.2 249.505,-171.2 249.505,-171.2 255.505,-171.2 261.505,-177.2 261.505,-183.2 261.505,-183.2 261.505,-292.8 261.505,-292.8 261.505,-298.8 255.505,-304.8 249.505,-304.8 249.505,-304.8 140.495,-304.8 140.495,-304.8 134.495,-304.8 128.495,-298.8 128.495,-292.8 128.495,-292.8 128.495,-183.2 128.495,-183.2 128.495,-177.2 134.495,-171.2 140.495,-171.2"/>
<text text-anchor="middle" x="195" y="-286.8" font-family="Times,serif" font-size="14.00">Review</text>
<polyline fill="none" stroke="black" points="128.495,-280 261.505,-280 "/>
<text text-anchor="start" x="136.495" y="-262" font-family="Times,serif" font-size="14.00">id :integer</text>
<text text-anchor="start" x="136.495" y="-245.2" font-family="Times,serif" font-size="14.00">student :string</text>
<text text-anchor="start" x="136.495" y="-228.4" font-family="Times,serif" font-size="14.00">body :text</text>
<text text-anchor="start" x="136.495" y="-211.6" font-family="Times,serif" font-size="14.00">created_at :datetime</text>
<text text-anchor="start" x="136.495" y="-194.8" font-family="Times,serif" font-size="14.00">updated_at :datetime</text>
<text text-anchor="start" x="136.495" y="-178" font-family="Times,serif" font-size="14.00">mentor_id :integer</text>
</g>
<!-- Mentor&#45;&gt;Review -->
<g id="edge4" class="edge"><title>Mentor&#45;&gt;Review</title>
<path fill="none" stroke="#f8990d" d="M217.796,-350.859C215.339,-338.802 212.859,-326.634 210.486,-314.989"/>
<ellipse fill="none" stroke="#f8990d" cx="218.653" cy="-355.067" rx="4.00001" ry="4.00001"/>
<polygon fill="#f8990d" stroke="#f8990d" points="210.428,-314.703 212.84,-304.006 209.429,-309.804 208.431,-304.905 208.431,-304.905 208.431,-304.905 209.429,-309.804 204.021,-305.803 210.428,-314.703 210.428,-314.703"/>
</g>
<!-- Mentor&#45;&gt;Student -->
<g id="edge3" class="edge"><title>Mentor&#45;&gt;Student</title>
<path fill="none" stroke="#50a21b" d="M318.105,-358.546C318.403,-358.363 318.701,-358.181 319,-358 447.224,-280.433 623.201,-253.381 725.04,-243.977"/>
<polygon fill="#50a21b" stroke="#50a21b" points="317.919,-358.672 307.109,-360.515 313.769,-361.461 309.619,-364.25 309.619,-364.25 309.619,-364.25 313.769,-361.461 312.129,-367.985 317.919,-358.672 317.919,-358.672"/>
<polygon fill="#50a21b" stroke="#50a21b" points="725.304,-243.954 735.663,-247.552 730.285,-243.512 735.265,-243.07 735.265,-243.07 735.265,-243.07 730.285,-243.512 734.867,-238.587 725.304,-243.954 725.304,-243.954"/>
</g>
<!-- Student&#45;&gt;Mentorship -->
<g id="edge9" class="edge"><title>Student&#45;&gt;Mentorship</title>
<path fill="none" stroke="#da2dd8" d="M727.598,-209.816C629.414,-176.202 463.439,-119.379 366.577,-86.2168"/>
<ellipse fill="none" stroke="#da2dd8" cx="731.601" cy="-211.186" rx="4.00001" ry="4.00001"/>
<polygon fill="#da2dd8" stroke="#da2dd8" points="366.308,-86.1249 358.305,-78.6284 361.578,-84.5053 356.847,-82.8858 356.847,-82.8858 356.847,-82.8858 361.578,-84.5053 355.39,-87.1432 366.308,-86.1249 366.308,-86.1249"/>
</g>
<!-- User -->
<g id="node7" class="node"><title>User</title>
<path fill="none" stroke="black" d="M360.722,-581.2C360.722,-581.2 541.278,-581.2 541.278,-581.2 547.278,-581.2 553.278,-587.2 553.278,-593.2 553.278,-593.2 553.278,-870.8 553.278,-870.8 553.278,-876.8 547.278,-882.8 541.278,-882.8 541.278,-882.8 360.722,-882.8 360.722,-882.8 354.722,-882.8 348.722,-876.8 348.722,-870.8 348.722,-870.8 348.722,-593.2 348.722,-593.2 348.722,-587.2 354.722,-581.2 360.722,-581.2"/>
<text text-anchor="middle" x="451" y="-864.8" font-family="Times,serif" font-size="14.00">User</text>
<polyline fill="none" stroke="black" points="348.722,-858 553.278,-858 "/>
<text text-anchor="start" x="356.722" y="-840" font-family="Times,serif" font-size="14.00">id :integer</text>
<text text-anchor="start" x="356.722" y="-823.2" font-family="Times,serif" font-size="14.00">email :string</text>
<text text-anchor="start" x="356.722" y="-806.4" font-family="Times,serif" font-size="14.00">encrypted_password :string</text>
<text text-anchor="start" x="356.722" y="-789.6" font-family="Times,serif" font-size="14.00">reset_password_token :string</text>
<text text-anchor="start" x="356.722" y="-772.8" font-family="Times,serif" font-size="14.00">reset_password_sent_at :datetime</text>
<text text-anchor="start" x="356.722" y="-756" font-family="Times,serif" font-size="14.00">remember_created_at :datetime</text>
<text text-anchor="start" x="356.722" y="-739.2" font-family="Times,serif" font-size="14.00">sign_in_count :integer</text>
<text text-anchor="start" x="356.722" y="-722.4" font-family="Times,serif" font-size="14.00">current_sign_in_at :datetime</text>
<text text-anchor="start" x="356.722" y="-705.6" font-family="Times,serif" font-size="14.00">last_sign_in_at :datetime</text>
<text text-anchor="start" x="356.722" y="-688.8" font-family="Times,serif" font-size="14.00">current_sign_in_ip :string</text>
<text text-anchor="start" x="356.722" y="-672" font-family="Times,serif" font-size="14.00">last_sign_in_ip :string</text>
<text text-anchor="start" x="356.722" y="-655.2" font-family="Times,serif" font-size="14.00">admin :boolean</text>
<text text-anchor="start" x="356.722" y="-638.4" font-family="Times,serif" font-size="14.00">created_at :datetime</text>
<text text-anchor="start" x="356.722" y="-621.6" font-family="Times,serif" font-size="14.00">updated_at :datetime</text>
<text text-anchor="start" x="356.722" y="-604.8" font-family="Times,serif" font-size="14.00">approval :integer</text>
<text text-anchor="start" x="356.722" y="-588" font-family="Times,serif" font-size="14.00">role :string</text>
</g>
<!-- User&#45;&gt;Mentor -->
<g id="edge11" class="edge"><title>User&#45;&gt;Mentor</title>
<path fill="none" stroke="#7da0fa" d="M343.682,-590.429C333.164,-576.652 322.657,-562.889 312.571,-549.678"/>
<ellipse fill="none" stroke="#7da0fa" cx="346.128" cy="-593.632" rx="4.00002" ry="4.00002"/>
<ellipse fill="#7da0fa" stroke="#7da0fa" cx="310.083" cy="-546.418" rx="4.00002" ry="4.00002"/>
</g>
<!-- User&#45;&gt;Student -->
<g id="edge12" class="edge"><title>User&#45;&gt;Student</title>
<path fill="none" stroke="#63b5e8" d="M561.196,-700.503C638.307,-672.961 736.264,-624.172 787,-544 827.071,-480.68 829.02,-394.414 822.712,-329.782"/>
<ellipse fill="none" stroke="#63b5e8" cx="557.101" cy="-701.941" rx="4.00001" ry="4.00001"/>
<ellipse fill="#63b5e8" stroke="#63b5e8" cx="822.275" cy="-325.59" rx="4" ry="4"/>
</g>
<!-- BasicProfile -->
<g id="node9" class="node"><title>BasicProfile</title>
<ellipse fill="none" stroke="black" cx="386" cy="-451" rx="58.3697" ry="18"/>
<text text-anchor="middle" x="386" y="-445.4" font-family="Times,serif" font-size="14.00">BasicProfile</text>
</g>
<!-- User&#45;&gt;BasicProfile -->
<g id="edge13" class="edge"><title>User&#45;&gt;BasicProfile</title>
<path fill="none" stroke="#4300ae" d="M414.182,-572.967C405.45,-535.484 397.141,-499.819 391.837,-477.055"/>
<ellipse fill="none" stroke="#4300ae" cx="415.119" cy="-576.987" rx="4.00001" ry="4.00001"/>
<ellipse fill="#4300ae" stroke="#4300ae" cx="390.865" cy="-472.881" rx="4.00001" ry="4.00001"/>
</g>
<!-- FullProfile -->
<g id="node10" class="node"><title>FullProfile</title>
<ellipse fill="none" stroke="black" cx="515" cy="-451" rx="52.036" ry="18"/>
<text text-anchor="middle" x="515" y="-445.4" font-family="Times,serif" font-size="14.00">FullProfile</text>
</g>
<!-- User&#45;&gt;FullProfile -->
<g id="edge14" class="edge"><title>User&#45;&gt;FullProfile</title>
<path fill="none" stroke="#4a31af" d="M487.251,-572.967C495.85,-535.484 504.031,-499.819 509.253,-477.055"/>
<ellipse fill="none" stroke="#4a31af" cx="486.33" cy="-576.984" rx="4.00001" ry="4.00001"/>
<ellipse fill="#4a31af" stroke="#4a31af" cx="510.209" cy="-472.884" rx="4.00001" ry="4.00001"/>
</g>
<!-- LinkedinOauthSetting -->
<g id="node11" class="node"><title>LinkedinOauthSetting</title>
<ellipse fill="none" stroke="black" cx="682" cy="-451" rx="96.2975" ry="18"/>
<text text-anchor="middle" x="682" y="-445.4" font-family="Times,serif" font-size="14.00">LinkedinOauthSetting</text>
</g>
<!-- User&#45;&gt;LinkedinOauthSetting -->
<g id="edge15" class="edge"><title>User&#45;&gt;LinkedinOauthSetting</title>
<path fill="none" stroke="#d18096" d="M558.544,-601.11C598.198,-553.215 639.11,-503.802 662.462,-475.598"/>
<ellipse fill="none" stroke="#d18096" cx="555.88" cy="-604.327" rx="4.00002" ry="4.00002"/>
<ellipse fill="#d18096" stroke="#d18096" cx="665.179" cy="-472.317" rx="4.00002" ry="4.00002"/>
</g>
<!-- ActiveRecord::Base -->
<g id="node8" class="node"><title>ActiveRecord::Base</title>
<ellipse fill="none" stroke="black" cx="313" cy="-963" rx="88.2033" ry="18"/>
<text text-anchor="middle" x="313" y="-957.4" font-family="Times,serif" font-size="14.00">ActiveRecord::Base</text>
</g>
<!-- ActiveRecord::Base&#45;&gt;Camp -->
<g id="edge2" class="edge"><title>ActiveRecord::Base&#45;&gt;Camp</title>
<path fill="none" stroke="black" d="M399.494,-959.015C534.28,-952.837 786.508,-934.684 859,-884 889.085,-862.965 908.987,-827.124 921.533,-795.639"/>
<polyline fill="none" stroke="black" points="923.483,-790.626 921.67,-795.286 "/>
</g>
<!-- ActiveRecord::Base&#45;&gt;Mentor -->
<g id="edge6" class="edge"><title>ActiveRecord::Base&#45;&gt;Mentor</title>
<path fill="none" stroke="black" d="M310.462,-944.739C301.452,-883.471 270.562,-673.421 252.149,-548.212"/>
<polyline fill="none" stroke="black" points="251.39,-543.055 252.118,-548.002 "/>
</g>
<!-- ActiveRecord::Base&#45;&gt;Mentorship -->
<g id="edge7" class="edge"><title>ActiveRecord::Base&#45;&gt;Mentorship</title>
<path fill="none" stroke="black" d="M277.942,-946.461C234.767,-926.99 166.215,-894.858 159,-884 20.4087,-675.44 127.895,-572.252 119,-322 116.348,-247.38 80.9904,-218.268 119,-154 140.538,-117.582 181.761,-94.3252 218.335,-80.0556"/>
<polyline fill="none" stroke="black" points="223.231,-78.1875 218.559,-79.97 "/>
</g>
<!-- ActiveRecord::Base&#45;&gt;Review -->
<g id="edge8" class="edge"><title>ActiveRecord::Base&#45;&gt;Review</title>
<path fill="none" stroke="black" d="M297.699,-945.22C284.7,-930.172 266.388,-906.984 255,-884 185.182,-743.085 178.994,-699.717 157,-544 145.439,-462.146 144.275,-439.681 157,-358 159.481,-342.076 163.723,-325.369 168.496,-309.676"/>
<polyline fill="none" stroke="black" points="169.993,-304.84 168.514,-309.617 "/>
</g>
<!-- ActiveRecord::Base&#45;&gt;Student -->
<g id="edge10" class="edge"><title>ActiveRecord::Base&#45;&gt;Student</title>
<path fill="none" stroke="black" d="M383.082,-951.92C436.015,-941.639 508.445,-921.64 562,-884 717.195,-774.924 759.508,-723.788 820,-544 843.631,-473.765 837.571,-389.269 827.204,-327.041"/>
<polyline fill="none" stroke="black" points="826.32,-321.846 827.159,-326.775 "/>
</g>
<!-- ActiveRecord::Base&#45;&gt;User -->
<g id="edge16" class="edge"><title>ActiveRecord::Base&#45;&gt;User</title>
<path fill="none" stroke="black" d="M323.372,-944.788C331.634,-931.079 344.099,-910.394 358.056,-887.233"/>
<polyline fill="none" stroke="black" points="360.679,-882.881 358.098,-887.163 "/>
</g>
</g>
</svg>
