<?xml version="1.0" encoding="UTF-8" standalone="no"?>
<!DOCTYPE svg PUBLIC "-//W3C//DTD SVG 1.1//EN"
 "http://www.w3.org/Graphics/SVG/1.1/DTD/svg11.dtd">
<!-- Generated by graphviz version 2.34.0 (20131025.1729)
 -->
<!-- Title: models_diagram Pages: 1 -->
<svg width="508pt" height="382pt"
 viewBox="0.00 0.00 508.00 382.00" xmlns="http://www.w3.org/2000/svg" xmlns:xlink="http://www.w3.org/1999/xlink">
<g id="graph0" class="graph" transform="scale(1 1) rotate(0) translate(4 378)">
<title>models_diagram</title>
<polygon fill="white" stroke="white" points="-4,4 -4,-378 504,-378 504,4 -4,4"/>
<!-- _diagram_info -->
<g id="node1" class="node"><title>_diagram_info</title>
<text text-anchor="start" x="7.55029" y="-357" font-family="Times,serif" font-size="13.00">Models diagram</text>
<text text-anchor="start" x="7.55029" y="-341.4" font-family="Times,serif" font-size="13.00">Date: Nov 10 2013 &#45; 23:14</text>
<text text-anchor="start" x="7.55029" y="-325.8" font-family="Times,serif" font-size="13.00">Migration version: 20130627045611</text>
<text text-anchor="start" x="7.55029" y="-310.2" font-family="Times,serif" font-size="13.00">Generated by RailRoady 1.1.1</text>
<text text-anchor="start" x="7.55029" y="-294.6" font-family="Times,serif" font-size="13.00">http://railroady.prestonlee.com</text>
</g>
<!-- Mentor -->
<g id="node2" class="node"><title>Mentor</title>
<ellipse fill="none" stroke="black" cx="389" cy="-162" rx="39.1979" ry="18"/>
<text text-anchor="middle" x="389" y="-156.4" font-family="Times,serif" font-size="14.00">Mentor</text>
</g>
<!-- Ranking -->
<g id="node4" class="node"><title>Ranking</title>
<ellipse fill="none" stroke="black" cx="298" cy="-18" rx="43.1445" ry="18"/>
<text text-anchor="middle" x="298" y="-12.4" font-family="Times,serif" font-size="14.00">Ranking</text>
</g>
<!-- Mentor&#45;&gt;Ranking -->
<g id="edge2" class="edge"><title>Mentor&#45;&gt;Ranking</title>
<path fill="none" stroke="#0f6d60" d="M384.649,-135.866C380.527,-117.087 372.981,-91.4186 360,-72 351.785,-59.7104 339.96,-48.6307 328.836,-39.8177"/>
<ellipse fill="none" stroke="#0f6d60" cx="385.455" cy="-139.79" rx="4.00001" ry="4.00001"/>
<polygon fill="#0f6d60" stroke="#0f6d60" points="328.511,-39.572 323.252,-29.9493 324.524,-36.5548 320.537,-33.5377 320.537,-33.5377 320.537,-33.5377 324.524,-36.5548 317.821,-37.1261 328.511,-39.572 328.511,-39.572"/>
</g>
<!-- Student -->
<g id="node5" class="node"><title>Student</title>
<ellipse fill="none" stroke="black" cx="311" cy="-90" rx="40.3171" ry="18"/>
<text text-anchor="middle" x="311" y="-84.4" font-family="Times,serif" font-size="14.00">Student</text>
</g>
<!-- Mentor&#45;&gt;Student -->
<g id="edge1" class="edge"><title>Mentor&#45;&gt;Student</title>
<path fill="none" stroke="#4a9282" d="M365.656,-140.05C356.273,-131.629 345.44,-121.907 335.905,-113.351"/>
<ellipse fill="none" stroke="#4a9282" cx="368.712" cy="-142.793" rx="4.00002" ry="4.00002"/>
<polygon fill="#4a9282" stroke="#4a9282" points="335.705,-113.171 331.268,-103.143 331.984,-109.831 328.262,-106.492 328.262,-106.492 328.262,-106.492 331.984,-109.831 325.257,-109.841 335.705,-113.171 335.705,-113.171"/>
</g>
<!-- Studentranking -->
<g id="node6" class="node"><title>Studentranking</title>
<ellipse fill="none" stroke="black" cx="430" cy="-18" rx="70.0658" ry="18"/>
<text text-anchor="middle" x="430" y="-12.4" font-family="Times,serif" font-size="14.00">Studentranking</text>
</g>
<!-- Mentor&#45;&gt;Studentranking -->
<g id="edge3" class="edge"><title>Mentor&#45;&gt;Studentranking</title>
<path fill="none" stroke="#40b5a3" d="M396.239,-135.929C403.516,-110.725 414.699,-71.9942 422.177,-46.0947"/>
<ellipse fill="none" stroke="#40b5a3" cx="395.055" cy="-140.028" rx="4.00001" ry="4.00001"/>
<polygon fill="#40b5a3" stroke="#40b5a3" points="422.263,-45.7968 429.36,-37.4376 423.65,-40.993 425.037,-36.1893 425.037,-36.1893 425.037,-36.1893 423.65,-40.993 420.714,-34.9409 422.263,-45.7968 422.263,-45.7968"/>
</g>
<!-- Notification -->
<g id="node3" class="node"><title>Notification</title>
<ellipse fill="none" stroke="black" cx="199" cy="-234" rx="57.2568" ry="18"/>
<text text-anchor="middle" x="199" y="-228.4" font-family="Times,serif" font-size="14.00">Notification</text>
</g>
<!-- Student&#45;&gt;Ranking -->
<g id="edge7" class="edge"><title>Student&#45;&gt;Ranking</title>
<path fill="none" stroke="#dce952" d="M306.355,-63.9868C305.289,-58.2493 304.151,-52.1211 303.069,-46.2929"/>
<ellipse fill="none" stroke="#dce952" cx="307.123" cy="-68.1222" rx="4.00001" ry="4.00001"/>
<polygon fill="#dce952" stroke="#dce952" points="303.034,-46.1072 305.633,-35.4536 302.121,-41.1912 301.208,-36.2753 301.208,-36.2753 301.208,-36.2753 302.121,-41.1912 296.784,-37.097 303.034,-46.1072 303.034,-46.1072"/>
</g>
<!-- Student&#45;&gt;Studentranking -->
<g id="edge8" class="edge"><title>Student&#45;&gt;Studentranking</title>
<path fill="none" stroke="#29c66e" d="M341.536,-71.0377C357.619,-61.5768 377.437,-49.9192 394.236,-40.0376"/>
<ellipse fill="none" stroke="#29c66e" cx="337.958" cy="-73.1421" rx="4.00002" ry="4.00002"/>
<polygon fill="#29c66e" stroke="#29c66e" points="394.596,-39.826 405.497,-38.6344 398.906,-37.2908 403.215,-34.7557 403.215,-34.7557 403.215,-34.7557 398.906,-37.2908 400.934,-30.877 394.596,-39.826 394.596,-39.826"/>
</g>
<!-- User -->
<g id="node7" class="node"><title>User</title>
<ellipse fill="none" stroke="black" cx="341" cy="-234" rx="28.9087" ry="18"/>
<text text-anchor="middle" x="341" y="-228.4" font-family="Times,serif" font-size="14.00">User</text>
</g>
<!-- User&#45;&gt;Mentor -->
<g id="edge11" class="edge"><title>User&#45;&gt;Mentor</title>
<path fill="none" stroke="#d8eb0e" d="M356.491,-210.409C361.808,-202.654 367.766,-193.967 373.114,-186.167"/>
<ellipse fill="none" stroke="#d8eb0e" cx="354.154" cy="-213.817" rx="4.00002" ry="4.00002"/>
<ellipse fill="#d8eb0e" stroke="#d8eb0e" cx="375.556" cy="-182.606" rx="4.00002" ry="4.00002"/>
</g>
<!-- User&#45;&gt;Student -->
<g id="edge12" class="edge"><title>User&#45;&gt;Student</title>
<path fill="none" stroke="#f6a64a" d="M335.703,-207.929C330.236,-182.053 321.758,-141.919 316.292,-116.051"/>
<ellipse fill="none" stroke="#f6a64a" cx="336.554" cy="-211.958" rx="4.00001" ry="4.00001"/>
<ellipse fill="#f6a64a" stroke="#f6a64a" cx="315.458" cy="-112.103" rx="4.00001" ry="4.00001"/>
</g>
<!-- ActiveRecord::Base -->
<g id="node8" class="node"><title>ActiveRecord::Base</title>
<ellipse fill="none" stroke="black" cx="313" cy="-331" rx="88.2033" ry="18"/>
<text text-anchor="middle" x="313" y="-325.4" font-family="Times,serif" font-size="14.00">ActiveRecord::Base</text>
</g>
<!-- ActiveRecord::Base&#45;&gt;Mentor -->
<g id="edge4" class="edge"><title>ActiveRecord::Base&#45;&gt;Mentor</title>
<path fill="none" stroke="black" d="M332.467,-313.232C347.894,-298.712 368.535,-276.271 379,-252 388.228,-230.596 390.078,-203.742 390.026,-185.159"/>
<polyline fill="none" stroke="black" points="389.965,-180.149 390.026,-185.149 "/>
</g>
<!-- ActiveRecord::Base&#45;&gt;Notification -->
<g id="edge5" class="edge"><title>ActiveRecord::Base&#45;&gt;Notification</title>
<path fill="none" stroke="black" d="M293.143,-313.452C273.407,-297.006 243.149,-271.791 222.29,-254.409"/>
<polyline fill="none" stroke="black" points="218.25,-251.042 222.091,-254.243 "/>
</g>
<!-- ActiveRecord::Base&#45;&gt;Ranking -->
<g id="edge6" class="edge"><title>ActiveRecord::Base&#45;&gt;Ranking</title>
<path fill="none" stroke="black" d="M276.708,-314.418C224.285,-291.892 133.532,-252.81 133,-252 78.7821,-169.416 208.998,-74.1939 269.331,-36.0691"/>
<polyline fill="none" stroke="black" points="273.9,-33.207 269.663,-35.8615 "/>
</g>
<!-- ActiveRecord::Base&#45;&gt;Student -->
<g id="edge9" class="edge"><title>ActiveRecord::Base&#45;&gt;Student</title>
<path fill="none" stroke="black" d="M310.14,-312.712C307.686,-296.947 304.34,-272.982 303,-252 299.848,-202.629 304.864,-144.673 308.27,-113.53"/>
<polyline fill="none" stroke="black" points="308.843,-108.401 308.288,-113.37 "/>
</g>
<!-- ActiveRecord::Base&#45;&gt;Studentranking -->
<g id="edge10" class="edge"><title>ActiveRecord::Base&#45;&gt;Studentranking</title>
<path fill="none" stroke="black" d="M335.526,-313.549C366.944,-288.835 421.787,-238.71 437,-180 449.472,-131.868 441.254,-72.9726 435.062,-41.4544"/>
<polyline fill="none" stroke="black" points="434.012,-36.2665 435.004,-41.1672 "/>
</g>
<!-- ActiveRecord::Base&#45;&gt;User -->
<g id="edge13" class="edge"><title>ActiveRecord::Base&#45;&gt;User</title>
<path fill="none" stroke="black" d="M318.006,-313.016C322.625,-297.345 329.508,-273.99 334.54,-256.918"/>
<polyline fill="none" stroke="black" points="336.037,-251.837 334.624,-256.633 "/>
</g>
</g>
</svg>
