<?xml version="1.0" encoding="UTF-8" standalone="no"?>
<!DOCTYPE svg PUBLIC "-//W3C//DTD SVG 1.1//EN"
 "http://www.w3.org/Graphics/SVG/1.1/DTD/svg11.dtd">
<!-- Generated by graphviz version 2.34.0 (20131025.1729)
 -->
<!-- Title: models_diagram Pages: 1 -->
<svg width="930pt" height="382pt"
 viewBox="0.00 0.00 930.00 382.00" xmlns="http://www.w3.org/2000/svg" xmlns:xlink="http://www.w3.org/1999/xlink">
<g id="graph0" class="graph" transform="scale(1 1) rotate(0) translate(4 378)">
<title>models_diagram</title>
<polygon fill="white" stroke="white" points="-4,4 -4,-378 926,-378 926,4 -4,4"/>
<!-- _diagram_info -->
<g id="node1" class="node"><title>_diagram_info</title>
<text text-anchor="start" x="7.31226" y="-357" font-family="Times,serif" font-size="13.00">Models diagram</text>
<text text-anchor="start" x="7.31226" y="-341.4" font-family="Times,serif" font-size="13.00">Date: Dec 04 2013 &#45; 11:35</text>
<text text-anchor="start" x="7.31226" y="-325.8" font-family="Times,serif" font-size="13.00">Migration version: 20131204042258</text>
<text text-anchor="start" x="7.31226" y="-310.2" font-family="Times,serif" font-size="13.00">Generated by RailRoady 1.1.1</text>
<text text-anchor="start" x="7.31226" y="-294.6" font-family="Times,serif" font-size="13.00">http://railroady.prestonlee.com</text>
</g>
<!-- Camp -->
<g id="node2" class="node"><title>Camp</title>
<ellipse fill="none" stroke="black" cx="888" cy="-234" rx="34.1558" ry="18"/>
<text text-anchor="middle" x="888" y="-228.4" font-family="Times,serif" font-size="14.00">Camp</text>
</g>
<!-- Student -->
<g id="node6" class="node"><title>Student</title>
<ellipse fill="none" stroke="black" cx="788" cy="-90" rx="40.3171" ry="18"/>
<text text-anchor="middle" x="788" y="-84.4" font-family="Times,serif" font-size="14.00">Student</text>
</g>
<!-- Camp&#45;&gt;Student -->
<g id="edge1" class="edge"><title>Camp&#45;&gt;Student</title>
<path fill="none" stroke="#049c48" d="M877.158,-208.629C868.382,-190.098 855.039,-164.401 840,-144 832.112,-133.3 822.141,-122.62 813.045,-113.68"/>
<ellipse fill="none" stroke="#049c48" cx="878.945" cy="-212.469" rx="4.00002" ry="4.00002"/>
<polygon fill="#049c48" stroke="#049c48" points="812.895,-113.537 808.789,-103.369 809.285,-110.077 805.675,-106.618 805.675,-106.618 805.675,-106.618 809.285,-110.077 802.562,-109.867 812.895,-113.537 812.895,-113.537"/>
</g>
<!-- Mentor -->
<g id="node3" class="node"><title>Mentor</title>
<ellipse fill="none" stroke="black" cx="251" cy="-162" rx="39.1979" ry="18"/>
<text text-anchor="middle" x="251" y="-156.4" font-family="Times,serif" font-size="14.00">Mentor</text>
</g>
<!-- Mentorship -->
<g id="node4" class="node"><title>Mentorship</title>
<ellipse fill="none" stroke="black" cx="284" cy="-18" rx="55.3445" ry="18"/>
<text text-anchor="middle" x="284" y="-12.4" font-family="Times,serif" font-size="14.00">Mentorship</text>
</g>
<!-- Mentor&#45;&gt;Mentorship -->
<g id="edge5" class="edge"><title>Mentor&#45;&gt;Mentorship</title>
<path fill="none" stroke="#596963" d="M257.282,-135.821C259.448,-127.028 261.865,-117.086 264,-108 268.86,-87.3174 274.119,-63.8704 278.024,-46.2363"/>
<ellipse fill="none" stroke="#596963" cx="256.261" cy="-139.952" rx="4.00001" ry="4.00001"/>
<polygon fill="#596963" stroke="#596963" points="278.109,-45.8495 284.659,-37.0545 279.187,-40.967 280.264,-36.0845 280.264,-36.0845 280.264,-36.0845 279.187,-40.967 275.87,-35.1146 278.109,-45.8495 278.109,-45.8495"/>
</g>
<!-- Review -->
<g id="node5" class="node"><title>Review</title>
<ellipse fill="none" stroke="black" cx="215" cy="-90" rx="40.303" ry="18"/>
<text text-anchor="middle" x="215" y="-84.4" font-family="Times,serif" font-size="14.00">Review</text>
</g>
<!-- Mentor&#45;&gt;Review -->
<g id="edge4" class="edge"><title>Mentor&#45;&gt;Review</title>
<path fill="none" stroke="#4e97d6" d="M238.689,-137.062C235.382,-130.632 231.79,-123.647 228.426,-117.106"/>
<ellipse fill="none" stroke="#4e97d6" cx="240.639" cy="-140.854" rx="4.00002" ry="4.00002"/>
<polygon fill="#4e97d6" stroke="#4e97d6" points="228.294,-116.849 227.722,-105.898 226.007,-112.403 223.72,-107.956 223.72,-107.956 223.72,-107.956 226.007,-112.403 219.719,-110.014 228.294,-116.849 228.294,-116.849"/>
</g>
<!-- Mentor&#45;&gt;Student -->
<g id="edge3" class="edge"><title>Mentor&#45;&gt;Student</title>
<path fill="none" stroke="#4310e6" d="M289.638,-146.697C293.113,-145.684 296.603,-144.764 300,-144 457.36,-108.635 648.764,-96.5931 737.873,-92.7177"/>
<polygon fill="#4310e6" stroke="#4310e6" points="289.504,-146.739 278.614,-145.451 284.735,-148.241 279.966,-149.743 279.966,-149.743 279.966,-149.743 284.735,-148.241 281.318,-154.035 289.504,-146.739 289.504,-146.739"/>
<polygon fill="#4310e6" stroke="#4310e6" points="737.976,-92.7134 748.156,-96.7909 742.972,-92.5041 747.967,-92.2948 747.967,-92.2948 747.967,-92.2948 742.972,-92.5041 747.779,-87.7988 737.976,-92.7134 737.976,-92.7134"/>
</g>
<!-- Student&#45;&gt;Mentorship -->
<g id="edge9" class="edge"><title>Student&#45;&gt;Mentorship</title>
<path fill="none" stroke="#fd08a8" d="M742.173,-82.6351C650.84,-69.9499 446.161,-41.5223 344.16,-27.3556"/>
<ellipse fill="none" stroke="#fd08a8" cx="746.156" cy="-83.1883" rx="4.00001" ry="4.00001"/>
<polygon fill="#fd08a8" stroke="#fd08a8" points="343.928,-27.3234 334.642,-21.4904 338.976,-26.6355 334.023,-25.9477 334.023,-25.9477 334.023,-25.9477 338.976,-26.6355 333.404,-30.4049 343.928,-27.3234 343.928,-27.3234"/>
</g>
<!-- User -->
<g id="node7" class="node"><title>User</title>
<ellipse fill="none" stroke="black" cx="435" cy="-234" rx="28.9087" ry="18"/>
<text text-anchor="middle" x="435" y="-228.4" font-family="Times,serif" font-size="14.00">User</text>
</g>
<!-- User&#45;&gt;Mentor -->
<g id="edge11" class="edge"><title>User&#45;&gt;Mentor</title>
<path fill="none" stroke="#9c03b9" d="M402.656,-220.695C370.661,-208.523 321.742,-189.913 288.166,-177.139"/>
<ellipse fill="none" stroke="#9c03b9" cx="406.828" cy="-222.282" rx="4.00001" ry="4.00001"/>
<ellipse fill="#9c03b9" stroke="#9c03b9" cx="284.142" cy="-175.608" rx="4.00001" ry="4.00001"/>
</g>
<!-- User&#45;&gt;Student -->
<g id="edge12" class="edge"><title>User&#45;&gt;Student</title>
<path fill="none" stroke="#dddebe" d="M472.271,-232.171C550.019,-229.657 725.789,-219.623 768,-180 785.175,-163.877 789.144,-136.442 789.454,-116.285"/>
<ellipse fill="none" stroke="#dddebe" cx="468.172" cy="-232.296" rx="4" ry="4"/>
<ellipse fill="#dddebe" stroke="#dddebe" cx="789.422" cy="-112.145" rx="4" ry="4"/>
</g>
<!-- BasicProfile -->
<g id="node9" class="node"><title>BasicProfile</title>
<ellipse fill="none" stroke="black" cx="367" cy="-162" rx="58.3697" ry="18"/>
<text text-anchor="middle" x="367" y="-156.4" font-family="Times,serif" font-size="14.00">BasicProfile</text>
</g>
<!-- User&#45;&gt;BasicProfile -->
<g id="edge13" class="edge"><title>User&#45;&gt;BasicProfile</title>
<path fill="none" stroke="#d23268" d="M414.911,-212.32C406.727,-203.896 397.245,-194.135 388.887,-185.53"/>
<ellipse fill="none" stroke="#d23268" cx="417.792" cy="-215.286" rx="4.00002" ry="4.00002"/>
<ellipse fill="#d23268" stroke="#d23268" cx="386.096" cy="-182.658" rx="4.00002" ry="4.00002"/>
</g>
<!-- FullProfile -->
<g id="node10" class="node"><title>FullProfile</title>
<ellipse fill="none" stroke="black" cx="496" cy="-162" rx="52.036" ry="18"/>
<text text-anchor="middle" x="496" y="-156.4" font-family="Times,serif" font-size="14.00">FullProfile</text>
</g>
<!-- User&#45;&gt;FullProfile -->
<g id="edge14" class="edge"><title>User&#45;&gt;FullProfile</title>
<path fill="none" stroke="#556ef2" d="M453.575,-211.684C460.723,-203.482 468.908,-194.089 476.169,-185.756"/>
<ellipse fill="none" stroke="#556ef2" cx="450.864" cy="-214.795" rx="4.00002" ry="4.00002"/>
<ellipse fill="#556ef2" stroke="#556ef2" cx="478.882" cy="-182.643" rx="4.00002" ry="4.00002"/>
</g>
<!-- LinkedinOauthSetting -->
<g id="node11" class="node"><title>LinkedinOauthSetting</title>
<ellipse fill="none" stroke="black" cx="663" cy="-162" rx="96.2975" ry="18"/>
<text text-anchor="middle" x="663" y="-156.4" font-family="Times,serif" font-size="14.00">LinkedinOauthSetting</text>
</g>
<!-- User&#45;&gt;LinkedinOauthSetting -->
<g id="edge15" class="edge"><title>User&#45;&gt;LinkedinOauthSetting</title>
<path fill="none" stroke="#e7f263" d="M468.574,-222.692C505.025,-211.501 563.833,-193.446 607.24,-180.119"/>
<ellipse fill="none" stroke="#e7f263" cx="464.535" cy="-223.932" rx="4.00001" ry="4.00001"/>
<ellipse fill="#e7f263" stroke="#e7f263" cx="611.333" cy="-178.863" rx="4.00001" ry="4.00001"/>
</g>
<!-- ActiveRecord::Base -->
<g id="node8" class="node"><title>ActiveRecord::Base</title>
<ellipse fill="none" stroke="black" cx="313" cy="-331" rx="88.2033" ry="18"/>
<text text-anchor="middle" x="313" y="-325.4" font-family="Times,serif" font-size="14.00">ActiveRecord::Base</text>
</g>
<!-- ActiveRecord::Base&#45;&gt;Camp -->
<g id="edge2" class="edge"><title>ActiveRecord::Base&#45;&gt;Camp</title>
<path fill="none" stroke="black" d="M392.5,-323.069C496.487,-312.907 683.822,-290.826 840,-252 845.386,-250.661 851.017,-248.956 856.45,-247.146"/>
<polyline fill="none" stroke="black" points="861.37,-245.461 856.639,-247.081 "/>
</g>
<!-- ActiveRecord::Base&#45;&gt;Mentor -->
<g id="edge6" class="edge"><title>ActiveRecord::Base&#45;&gt;Mentor</title>
<path fill="none" stroke="black" d="M306.598,-312.757C295.216,-282.097 271.484,-218.174 259.028,-184.623"/>
<polyline fill="none" stroke="black" points="257.274,-179.9 259.015,-184.588 "/>
</g>
<!-- ActiveRecord::Base&#45;&gt;Mentorship -->
<g id="edge7" class="edge"><title>ActiveRecord::Base&#45;&gt;Mentorship</title>
<path fill="none" stroke="black" d="M284.88,-313.806C263.049,-299.93 233.478,-278.083 215,-252 175.836,-196.719 176.268,-174.805 165,-108 162.339,-92.2229 156.287,-85.4193 165,-72 179.78,-49.2381 206.851,-36.17 231.443,-28.7091"/>
<polyline fill="none" stroke="black" points="236.324,-27.2905 231.522,-28.686 "/>
</g>
<!-- ActiveRecord::Base&#45;&gt;Review -->
<g id="edge8" class="edge"><title>ActiveRecord::Base&#45;&gt;Review</title>
<path fill="none" stroke="black" d="M294.891,-313.224C268.644,-287.533 221.186,-235.55 203,-180 195.728,-157.788 201.088,-131.072 206.779,-112.743"/>
<polyline fill="none" stroke="black" points="208.382,-107.806 206.837,-112.562 "/>
</g>
<!-- ActiveRecord::Base&#45;&gt;Student -->
<g id="edge10" class="edge"><title>ActiveRecord::Base&#45;&gt;Student</title>
<path fill="none" stroke="black" d="M379.217,-318.994C498.303,-297.705 740.824,-247.014 790,-180 804.041,-160.866 800.517,-132.662 795.449,-113.156"/>
<polyline fill="none" stroke="black" points="793.992,-107.899 795.328,-112.717 "/>
</g>
<!-- ActiveRecord::Base&#45;&gt;User -->
<g id="edge16" class="edge"><title>ActiveRecord::Base&#45;&gt;User</title>
<path fill="none" stroke="black" d="M334.251,-313.452C356.488,-296.137 391.207,-269.101 413.527,-251.721"/>
<polyline fill="none" stroke="black" points="417.545,-248.592 413.6,-251.664 "/>
</g>
</g>
</svg>
