<?xml version="1.0" encoding="UTF-8" standalone="no"?>
<!DOCTYPE svg PUBLIC "-//W3C//DTD SVG 1.1//EN"
 "http://www.w3.org/Graphics/SVG/1.1/DTD/svg11.dtd">
<!-- Generated by graphviz version 2.34.0 (20131025.1729)
 -->
<!-- Title: models_diagram Pages: 1 -->
<svg width="657pt" height="2410pt"
 viewBox="0.00 0.00 657.05 2410.00" xmlns="http://www.w3.org/2000/svg" xmlns:xlink="http://www.w3.org/1999/xlink">
<g id="graph0" class="graph" transform="scale(1 1) rotate(0) translate(4 2406)">
<title>models_diagram</title>
<polygon fill="white" stroke="white" points="-4,4 -4,-2406 653.045,-2406 653.045,4 -4,4"/>
<!-- _diagram_info -->
<g id="node1" class="node"><title>_diagram_info</title>
<text text-anchor="start" x="55.161" y="-2385" font-family="Times,serif" font-size="13.00">Models diagram</text>
<text text-anchor="start" x="55.161" y="-2369.4" font-family="Times,serif" font-size="13.00">Date: Nov 10 2013 &#45; 23:14</text>
<text text-anchor="start" x="55.161" y="-2353.8" font-family="Times,serif" font-size="13.00">Migration version: 20130627045611</text>
<text text-anchor="start" x="55.161" y="-2338.2" font-family="Times,serif" font-size="13.00">Generated by RailRoady 1.1.1</text>
<text text-anchor="start" x="55.161" y="-2322.6" font-family="Times,serif" font-size="13.00">http://railroady.prestonlee.com</text>
</g>
<!-- Mentor -->
<g id="node2" class="node"><title>Mentor</title>
<path fill="none" stroke="black" d="M373.388,-1200.8C373.388,-1200.8 613.833,-1200.8 613.833,-1200.8 619.833,-1200.8 625.833,-1206.8 625.833,-1212.8 625.833,-1212.8 625.833,-1927.2 625.833,-1927.2 625.833,-1933.2 619.833,-1939.2 613.833,-1939.2 613.833,-1939.2 373.388,-1939.2 373.388,-1939.2 367.388,-1939.2 361.388,-1933.2 361.388,-1927.2 361.388,-1927.2 361.388,-1212.8 361.388,-1212.8 361.388,-1206.8 367.388,-1200.8 373.388,-1200.8"/>
<text text-anchor="middle" x="493.611" y="-1921.2" font-family="Times,serif" font-size="14.00">Mentor</text>
<polyline fill="none" stroke="black" points="361.388,-1914.4 625.833,-1914.4 "/>
<text text-anchor="start" x="369.388" y="-1896.4" font-family="Times,serif" font-size="14.00">id :integer</text>
<text text-anchor="start" x="369.388" y="-1879.6" font-family="Times,serif" font-size="14.00">personal_first_name :string</text>
<text text-anchor="start" x="369.388" y="-1862.8" font-family="Times,serif" font-size="14.00">personal_last_name :string</text>
<text text-anchor="start" x="369.388" y="-1846" font-family="Times,serif" font-size="14.00">personal_why_mentor :string</text>
<text text-anchor="start" x="369.388" y="-1829.2" font-family="Times,serif" font-size="14.00">personal_knowledge_impart :string</text>
<text text-anchor="start" x="369.388" y="-1812.4" font-family="Times,serif" font-size="14.00">career_information :string</text>
<text text-anchor="start" x="369.388" y="-1795.6" font-family="Times,serif" font-size="14.00">career_job_title :string</text>
<text text-anchor="start" x="369.388" y="-1778.8" font-family="Times,serif" font-size="14.00">career_company_private :string</text>
<text text-anchor="start" x="369.388" y="-1762" font-family="Times,serif" font-size="14.00">career_company_type :string</text>
<text text-anchor="start" x="369.388" y="-1745.2" font-family="Times,serif" font-size="14.00">experience_university :string</text>
<text text-anchor="start" x="369.388" y="-1728.4" font-family="Times,serif" font-size="14.00">experience_degree :string</text>
<text text-anchor="start" x="369.388" y="-1711.6" font-family="Times,serif" font-size="14.00">experience_other_degree :string</text>
<text text-anchor="start" x="369.388" y="-1694.8" font-family="Times,serif" font-size="14.00">experience_job :string</text>
<text text-anchor="start" x="369.388" y="-1678" font-family="Times,serif" font-size="14.00">experience_project :string</text>
<text text-anchor="start" x="369.388" y="-1661.2" font-family="Times,serif" font-size="14.00">mentee_skills_developer :integer</text>
<text text-anchor="start" x="369.388" y="-1644.4" font-family="Times,serif" font-size="14.00">mentee_skills_html_css :integer</text>
<text text-anchor="start" x="369.388" y="-1627.6" font-family="Times,serif" font-size="14.00">mentee_skills_javascript :integer</text>
<text text-anchor="start" x="369.388" y="-1610.8" font-family="Times,serif" font-size="14.00">mentee_skills_java :integer</text>
<text text-anchor="start" x="369.388" y="-1594" font-family="Times,serif" font-size="14.00">mentee_skills_cplusplus :integer</text>
<text text-anchor="start" x="369.388" y="-1577.2" font-family="Times,serif" font-size="14.00">mentee_skills_c :integer</text>
<text text-anchor="start" x="369.388" y="-1560.4" font-family="Times,serif" font-size="14.00">mentee_skills_ruby :integer</text>
<text text-anchor="start" x="369.388" y="-1543.6" font-family="Times,serif" font-size="14.00">mentee_skills_python :integer</text>
<text text-anchor="start" x="369.388" y="-1526.8" font-family="Times,serif" font-size="14.00">mentee_skills_php :integer</text>
<text text-anchor="start" x="369.388" y="-1510" font-family="Times,serif" font-size="14.00">mentee_skills_net :integer</text>
<text text-anchor="start" x="369.388" y="-1493.2" font-family="Times,serif" font-size="14.00">mentee_skills_coffeescript :integer</text>
<text text-anchor="start" x="369.388" y="-1476.4" font-family="Times,serif" font-size="14.00">mentee_skills_object :integer</text>
<text text-anchor="start" x="369.388" y="-1459.6" font-family="Times,serif" font-size="14.00">mentee_skills_other_coding :string</text>
<text text-anchor="start" x="369.388" y="-1442.8" font-family="Times,serif" font-size="14.00">mentee_gender :string</text>
<text text-anchor="start" x="369.388" y="-1426" font-family="Times,serif" font-size="14.00">skills_career_advice :integer</text>
<text text-anchor="start" x="369.388" y="-1409.2" font-family="Times,serif" font-size="14.00">skills_development :integer</text>
<text text-anchor="start" x="369.388" y="-1392.4" font-family="Times,serif" font-size="14.00">skills_coding_question_tactics :integer</text>
<text text-anchor="start" x="369.388" y="-1375.6" font-family="Times,serif" font-size="14.00">skills_soft_skills :integer</text>
<text text-anchor="start" x="369.388" y="-1358.8" font-family="Times,serif" font-size="14.00">skills_interview_coaching :integer</text>
<text text-anchor="start" x="369.388" y="-1342" font-family="Times,serif" font-size="14.00">skills_job_search :integer</text>
<text text-anchor="start" x="369.388" y="-1325.2" font-family="Times,serif" font-size="14.00">skills_resume_development :integer</text>
<text text-anchor="start" x="369.388" y="-1308.4" font-family="Times,serif" font-size="14.00">skills_github_account_development :integer</text>
<text text-anchor="start" x="369.388" y="-1291.6" font-family="Times,serif" font-size="14.00">skills_selling_idea :integer</text>
<text text-anchor="start" x="369.388" y="-1274.8" font-family="Times,serif" font-size="14.00">mentee_extra_info :string</text>
<text text-anchor="start" x="369.388" y="-1258" font-family="Times,serif" font-size="14.00">cf_class :string</text>
<text text-anchor="start" x="369.388" y="-1241.2" font-family="Times,serif" font-size="14.00">created_at :datetime</text>
<text text-anchor="start" x="369.388" y="-1224.4" font-family="Times,serif" font-size="14.00">updated_at :datetime</text>
<text text-anchor="start" x="369.388" y="-1207.6" font-family="Times,serif" font-size="14.00">user_id :integer</text>
</g>
<!-- Ranking -->
<g id="node4" class="node"><title>Ranking</title>
<path fill="none" stroke="black" d="M274.105,-1.2C274.105,-1.2 383.116,-1.2 383.116,-1.2 389.116,-1.2 395.116,-7.2 395.116,-13.2 395.116,-13.2 395.116,-122.8 395.116,-122.8 395.116,-128.8 389.116,-134.8 383.116,-134.8 383.116,-134.8 274.105,-134.8 274.105,-134.8 268.105,-134.8 262.105,-128.8 262.105,-122.8 262.105,-122.8 262.105,-13.2 262.105,-13.2 262.105,-7.2 268.105,-1.2 274.105,-1.2"/>
<text text-anchor="middle" x="328.611" y="-116.8" font-family="Times,serif" font-size="14.00">Ranking</text>
<polyline fill="none" stroke="black" points="262.105,-110 395.116,-110 "/>
<text text-anchor="start" x="270.105" y="-92" font-family="Times,serif" font-size="14.00">id :integer</text>
<text text-anchor="start" x="270.105" y="-75.2" font-family="Times,serif" font-size="14.00">mentor_id :integer</text>
<text text-anchor="start" x="270.105" y="-58.4" font-family="Times,serif" font-size="14.00">student_id :integer</text>
<text text-anchor="start" x="270.105" y="-41.6" font-family="Times,serif" font-size="14.00">rank :integer</text>
<text text-anchor="start" x="270.105" y="-24.8" font-family="Times,serif" font-size="14.00">created_at :datetime</text>
<text text-anchor="start" x="270.105" y="-8" font-family="Times,serif" font-size="14.00">updated_at :datetime</text>
</g>
<!-- Mentor&#45;&gt;Ranking -->
<g id="edge2" class="edge"><title>Mentor&#45;&gt;Ranking</title>
<path fill="none" stroke="#48f8ed" d="M496.898,-1192.37C499.104,-794.025 498.143,-216.655 474.611,-172 459.212,-142.78 431.366,-120.048 404.09,-103.463"/>
<ellipse fill="none" stroke="#48f8ed" cx="496.875" cy="-1196.57" rx="4" ry="4"/>
<polygon fill="#48f8ed" stroke="#48f8ed" points="403.898,-103.35 397.547,-94.4109 399.585,-100.822 395.271,-98.2931 395.271,-98.2931 395.271,-98.2931 399.585,-100.822 392.996,-102.175 403.898,-103.35 403.898,-103.35"/>
</g>
<!-- Student -->
<g id="node5" class="node"><title>Student</title>
<path fill="none" stroke="black" d="M203.343,-172.8C203.343,-172.8 453.878,-172.8 453.878,-172.8 459.878,-172.8 465.878,-178.8 465.878,-184.8 465.878,-184.8 465.878,-1151.2 465.878,-1151.2 465.878,-1157.2 459.878,-1163.2 453.878,-1163.2 453.878,-1163.2 203.343,-1163.2 203.343,-1163.2 197.343,-1163.2 191.343,-1157.2 191.343,-1151.2 191.343,-1151.2 191.343,-184.8 191.343,-184.8 191.343,-178.8 197.343,-172.8 203.343,-172.8"/>
<text text-anchor="middle" x="328.611" y="-1145.2" font-family="Times,serif" font-size="14.00">Student</text>
<polyline fill="none" stroke="black" points="191.343,-1138.4 465.878,-1138.4 "/>
<text text-anchor="start" x="199.343" y="-1120.4" font-family="Times,serif" font-size="14.00">id :integer</text>
<text text-anchor="start" x="199.343" y="-1103.6" font-family="Times,serif" font-size="14.00">notify :boolean</text>
<text text-anchor="start" x="199.343" y="-1086.8" font-family="Times,serif" font-size="14.00">cf_class :string</text>
<text text-anchor="start" x="199.343" y="-1070" font-family="Times,serif" font-size="14.00">personal_first_name :string</text>
<text text-anchor="start" x="199.343" y="-1053.2" font-family="Times,serif" font-size="14.00">personal_last_name :string</text>
<text text-anchor="start" x="199.343" y="-1036.4" font-family="Times,serif" font-size="14.00">personal_where_you_from :string</text>
<text text-anchor="start" x="199.343" y="-1019.6" font-family="Times,serif" font-size="14.00">experience_university :string</text>
<text text-anchor="start" x="199.343" y="-1002.8" font-family="Times,serif" font-size="14.00">experience_degree :string</text>
<text text-anchor="start" x="199.343" y="-986" font-family="Times,serif" font-size="14.00">experience_other_degree :string</text>
<text text-anchor="start" x="199.343" y="-969.2" font-family="Times,serif" font-size="14.00">experience_job :string</text>
<text text-anchor="start" x="199.343" y="-952.4" font-family="Times,serif" font-size="14.00">experience_why_codefellows :string</text>
<text text-anchor="start" x="199.343" y="-935.6" font-family="Times,serif" font-size="14.00">experience_project :string</text>
<text text-anchor="start" x="199.343" y="-918.8" font-family="Times,serif" font-size="14.00">skills_developer :integer</text>
<text text-anchor="start" x="199.343" y="-902" font-family="Times,serif" font-size="14.00">skills_object :integer</text>
<text text-anchor="start" x="199.343" y="-885.2" font-family="Times,serif" font-size="14.00">skills_html_css :integer</text>
<text text-anchor="start" x="199.343" y="-868.4" font-family="Times,serif" font-size="14.00">skills_javascript :integer</text>
<text text-anchor="start" x="199.343" y="-851.6" font-family="Times,serif" font-size="14.00">skills_java :integer</text>
<text text-anchor="start" x="199.343" y="-834.8" font-family="Times,serif" font-size="14.00">skills_cplusplus :integer</text>
<text text-anchor="start" x="199.343" y="-818" font-family="Times,serif" font-size="14.00">skills_c :integer</text>
<text text-anchor="start" x="199.343" y="-801.2" font-family="Times,serif" font-size="14.00">skills_ruby :integer</text>
<text text-anchor="start" x="199.343" y="-784.4" font-family="Times,serif" font-size="14.00">skills_python :integer</text>
<text text-anchor="start" x="199.343" y="-767.6" font-family="Times,serif" font-size="14.00">skills_php :integer</text>
<text text-anchor="start" x="199.343" y="-750.8" font-family="Times,serif" font-size="14.00">skills_net :integer</text>
<text text-anchor="start" x="199.343" y="-734" font-family="Times,serif" font-size="14.00">skills_coffeescript :integer</text>
<text text-anchor="start" x="199.343" y="-717.2" font-family="Times,serif" font-size="14.00">skills_other_coding :string</text>
<text text-anchor="start" x="199.343" y="-700.4" font-family="Times,serif" font-size="14.00">skills_selling_yourself :integer</text>
<text text-anchor="start" x="199.343" y="-683.6" font-family="Times,serif" font-size="14.00">skills_development_familiarity :integer</text>
<text text-anchor="start" x="199.343" y="-666.8" font-family="Times,serif" font-size="14.00">skills_agile_development_experience :integer</text>
<text text-anchor="start" x="199.343" y="-650" font-family="Times,serif" font-size="14.00">learning_self_taught :string</text>
<text text-anchor="start" x="199.343" y="-633.2" font-family="Times,serif" font-size="14.00">learning :string</text>
<text text-anchor="start" x="199.343" y="-616.4" font-family="Times,serif" font-size="14.00">learning_preference :string</text>
<text text-anchor="start" x="199.343" y="-599.6" font-family="Times,serif" font-size="14.00">learning_extra_information :string</text>
<text text-anchor="start" x="199.343" y="-582.8" font-family="Times,serif" font-size="14.00">mentor_career_advice :integer</text>
<text text-anchor="start" x="199.343" y="-566" font-family="Times,serif" font-size="14.00">mentor_skill_development :integer</text>
<text text-anchor="start" x="199.343" y="-549.2" font-family="Times,serif" font-size="14.00">mentor_coding_question_tactics :integer</text>
<text text-anchor="start" x="199.343" y="-532.4" font-family="Times,serif" font-size="14.00">mentor_soft_skills :integer</text>
<text text-anchor="start" x="199.343" y="-515.6" font-family="Times,serif" font-size="14.00">mentor_interview_coaching :integer</text>
<text text-anchor="start" x="199.343" y="-498.8" font-family="Times,serif" font-size="14.00">mentor_job_search :integer</text>
<text text-anchor="start" x="199.343" y="-482" font-family="Times,serif" font-size="14.00">mentor_resume_development :integer</text>
<text text-anchor="start" x="199.343" y="-465.2" font-family="Times,serif" font-size="14.00">mentor_github_account_development :integer</text>
<text text-anchor="start" x="199.343" y="-448.4" font-family="Times,serif" font-size="14.00">mentor_selling_idea :integer</text>
<text text-anchor="start" x="199.343" y="-431.6" font-family="Times,serif" font-size="14.00">mentor_company_type :string</text>
<text text-anchor="start" x="199.343" y="-414.8" font-family="Times,serif" font-size="14.00">mentor_gender :string</text>
<text text-anchor="start" x="199.343" y="-398" font-family="Times,serif" font-size="14.00">mentor_extra_info :string</text>
<text text-anchor="start" x="199.343" y="-381.2" font-family="Times,serif" font-size="14.00">goals_company_type :string</text>
<text text-anchor="start" x="199.343" y="-364.4" font-family="Times,serif" font-size="14.00">goals_after_codefellows :string</text>
<text text-anchor="start" x="199.343" y="-347.6" font-family="Times,serif" font-size="14.00">goals_dream_job_title :string</text>
<text text-anchor="start" x="199.343" y="-330.8" font-family="Times,serif" font-size="14.00">goals_companies :string</text>
<text text-anchor="start" x="199.343" y="-314" font-family="Times,serif" font-size="14.00">goals_next_year :string</text>
<text text-anchor="start" x="199.343" y="-297.2" font-family="Times,serif" font-size="14.00">goal_next_4_years :string</text>
<text text-anchor="start" x="199.343" y="-280.4" font-family="Times,serif" font-size="14.00">goals_stay_seattle :string</text>
<text text-anchor="start" x="199.343" y="-263.6" font-family="Times,serif" font-size="14.00">linked_in :string</text>
<text text-anchor="start" x="199.343" y="-246.8" font-family="Times,serif" font-size="14.00">goals_extra_info :string</text>
<text text-anchor="start" x="199.343" y="-230" font-family="Times,serif" font-size="14.00">mentor_id :integer</text>
<text text-anchor="start" x="199.343" y="-213.2" font-family="Times,serif" font-size="14.00">created_at :datetime</text>
<text text-anchor="start" x="199.343" y="-196.4" font-family="Times,serif" font-size="14.00">updated_at :datetime</text>
<text text-anchor="start" x="199.343" y="-179.6" font-family="Times,serif" font-size="14.00">user_id :integer</text>
</g>
<!-- Mentor&#45;&gt;Student -->
<g id="edge1" class="edge"><title>Mentor&#45;&gt;Student</title>
<path fill="none" stroke="#67f055" d="M424.59,-1192.53C423.423,-1186.16 422.252,-1179.77 421.079,-1173.37"/>
<ellipse fill="none" stroke="#67f055" cx="425.361" cy="-1196.73" rx="4.00001" ry="4.00001"/>
<polygon fill="#67f055" stroke="#67f055" points="421.035,-1173.13 423.658,-1162.49 420.134,-1168.22 419.232,-1163.3 419.232,-1163.3 419.232,-1163.3 420.134,-1168.22 414.806,-1164.11 421.035,-1173.13 421.035,-1173.13"/>
</g>
<!-- Studentranking -->
<g id="node6" class="node"><title>Studentranking</title>
<path fill="none" stroke="black" d="M477.105,-1.2C477.105,-1.2 586.116,-1.2 586.116,-1.2 592.116,-1.2 598.116,-7.2 598.116,-13.2 598.116,-13.2 598.116,-122.8 598.116,-122.8 598.116,-128.8 592.116,-134.8 586.116,-134.8 586.116,-134.8 477.105,-134.8 477.105,-134.8 471.105,-134.8 465.105,-128.8 465.105,-122.8 465.105,-122.8 465.105,-13.2 465.105,-13.2 465.105,-7.2 471.105,-1.2 477.105,-1.2"/>
<text text-anchor="middle" x="531.611" y="-116.8" font-family="Times,serif" font-size="14.00">Studentranking</text>
<polyline fill="none" stroke="black" points="465.105,-110 598.116,-110 "/>
<text text-anchor="start" x="473.105" y="-92" font-family="Times,serif" font-size="14.00">id :integer</text>
<text text-anchor="start" x="473.105" y="-75.2" font-family="Times,serif" font-size="14.00">mentor_id :integer</text>
<text text-anchor="start" x="473.105" y="-58.4" font-family="Times,serif" font-size="14.00">student_id :integer</text>
<text text-anchor="start" x="473.105" y="-41.6" font-family="Times,serif" font-size="14.00">rank :integer</text>
<text text-anchor="start" x="473.105" y="-24.8" font-family="Times,serif" font-size="14.00">created_at :datetime</text>
<text text-anchor="start" x="473.105" y="-8" font-family="Times,serif" font-size="14.00">updated_at :datetime</text>
</g>
<!-- Mentor&#45;&gt;Studentranking -->
<g id="edge3" class="edge"><title>Mentor&#45;&gt;Studentranking</title>
<path fill="none" stroke="#b06ce0" d="M506.784,-1192.56C507.069,-1182.94 507.345,-1173.41 507.611,-1164 518.419,-781.302 527.072,-323.25 530.274,-145.099"/>
<ellipse fill="none" stroke="#b06ce0" cx="506.662" cy="-1196.65" rx="4" ry="4"/>
<polygon fill="#b06ce0" stroke="#b06ce0" points="530.275,-145.041 534.953,-135.123 530.364,-140.042 530.454,-135.042 530.454,-135.042 530.454,-135.042 530.364,-140.042 525.955,-134.962 530.275,-145.041 530.275,-145.041"/>
</g>
<!-- Notification -->
<g id="node3" class="node"><title>Notification</title>
<path fill="none" stroke="black" d="M146.105,-2052.8C146.105,-2052.8 255.116,-2052.8 255.116,-2052.8 261.116,-2052.8 267.116,-2058.8 267.116,-2064.8 267.116,-2064.8 267.116,-2191.2 267.116,-2191.2 267.116,-2197.2 261.116,-2203.2 255.116,-2203.2 255.116,-2203.2 146.105,-2203.2 146.105,-2203.2 140.105,-2203.2 134.105,-2197.2 134.105,-2191.2 134.105,-2191.2 134.105,-2064.8 134.105,-2064.8 134.105,-2058.8 140.105,-2052.8 146.105,-2052.8"/>
<text text-anchor="middle" x="200.611" y="-2185.2" font-family="Times,serif" font-size="14.00">Notification</text>
<polyline fill="none" stroke="black" points="134.105,-2178.4 267.116,-2178.4 "/>
<text text-anchor="start" x="142.105" y="-2160.4" font-family="Times,serif" font-size="14.00">id :integer</text>
<text text-anchor="start" x="142.105" y="-2143.6" font-family="Times,serif" font-size="14.00">subject :string</text>
<text text-anchor="start" x="142.105" y="-2126.8" font-family="Times,serif" font-size="14.00">message :string</text>
<text text-anchor="start" x="142.105" y="-2110" font-family="Times,serif" font-size="14.00">receiver_type :string</text>
<text text-anchor="start" x="142.105" y="-2093.2" font-family="Times,serif" font-size="14.00">receiver_id :integer</text>
<text text-anchor="start" x="142.105" y="-2076.4" font-family="Times,serif" font-size="14.00">created_at :datetime</text>
<text text-anchor="start" x="142.105" y="-2059.6" font-family="Times,serif" font-size="14.00">updated_at :datetime</text>
</g>
<!-- Student&#45;&gt;Ranking -->
<g id="edge7" class="edge"><title>Student&#45;&gt;Ranking</title>
<path fill="none" stroke="#1c7659" d="M328.611,-164.317C328.611,-157.582 328.611,-151.108 328.611,-144.93"/>
<ellipse fill="none" stroke="#1c7659" cx="328.611" cy="-168.481" rx="4" ry="4"/>
<polygon fill="#1c7659" stroke="#1c7659" points="328.611,-144.816 333.111,-134.816 328.611,-139.816 328.611,-134.816 328.611,-134.816 328.611,-134.816 328.611,-139.816 324.111,-134.816 328.611,-144.816 328.611,-144.816"/>
</g>
<!-- Student&#45;&gt;Studentranking -->
<g id="edge8" class="edge"><title>Student&#45;&gt;Studentranking</title>
<path fill="none" stroke="#68dd90" d="M468.597,-254.626C482.653,-213.22 495.553,-175.219 505.97,-144.532"/>
<ellipse fill="none" stroke="#68dd90" cx="467.269" cy="-258.54" rx="4.00001" ry="4.00001"/>
<polygon fill="#68dd90" stroke="#68dd90" points="506.049,-144.3 513.525,-136.277 507.656,-139.565 509.264,-134.83 509.264,-134.83 509.264,-134.83 507.656,-139.565 505.002,-133.384 506.049,-144.3 506.049,-144.3"/>
</g>
<!-- User -->
<g id="node7" class="node"><title>User</title>
<path fill="none" stroke="black" d="M335.333,-1977.2C335.333,-1977.2 515.889,-1977.2 515.889,-1977.2 521.889,-1977.2 527.889,-1983.2 527.889,-1989.2 527.889,-1989.2 527.889,-2266.8 527.889,-2266.8 527.889,-2272.8 521.889,-2278.8 515.889,-2278.8 515.889,-2278.8 335.333,-2278.8 335.333,-2278.8 329.333,-2278.8 323.333,-2272.8 323.333,-2266.8 323.333,-2266.8 323.333,-1989.2 323.333,-1989.2 323.333,-1983.2 329.333,-1977.2 335.333,-1977.2"/>
<text text-anchor="middle" x="425.611" y="-2260.8" font-family="Times,serif" font-size="14.00">User</text>
<polyline fill="none" stroke="black" points="323.333,-2254 527.889,-2254 "/>
<text text-anchor="start" x="331.333" y="-2236" font-family="Times,serif" font-size="14.00">id :integer</text>
<text text-anchor="start" x="331.333" y="-2219.2" font-family="Times,serif" font-size="14.00">email :string</text>
<text text-anchor="start" x="331.333" y="-2202.4" font-family="Times,serif" font-size="14.00">encrypted_password :string</text>
<text text-anchor="start" x="331.333" y="-2185.6" font-family="Times,serif" font-size="14.00">reset_password_token :string</text>
<text text-anchor="start" x="331.333" y="-2168.8" font-family="Times,serif" font-size="14.00">reset_password_sent_at :datetime</text>
<text text-anchor="start" x="331.333" y="-2152" font-family="Times,serif" font-size="14.00">remember_created_at :datetime</text>
<text text-anchor="start" x="331.333" y="-2135.2" font-family="Times,serif" font-size="14.00">sign_in_count :integer</text>
<text text-anchor="start" x="331.333" y="-2118.4" font-family="Times,serif" font-size="14.00">current_sign_in_at :datetime</text>
<text text-anchor="start" x="331.333" y="-2101.6" font-family="Times,serif" font-size="14.00">last_sign_in_at :datetime</text>
<text text-anchor="start" x="331.333" y="-2084.8" font-family="Times,serif" font-size="14.00">current_sign_in_ip :string</text>
<text text-anchor="start" x="331.333" y="-2068" font-family="Times,serif" font-size="14.00">last_sign_in_ip :string</text>
<text text-anchor="start" x="331.333" y="-2051.2" font-family="Times,serif" font-size="14.00">admin :boolean</text>
<text text-anchor="start" x="331.333" y="-2034.4" font-family="Times,serif" font-size="14.00">created_at :datetime</text>
<text text-anchor="start" x="331.333" y="-2017.6" font-family="Times,serif" font-size="14.00">updated_at :datetime</text>
<text text-anchor="start" x="331.333" y="-2000.8" font-family="Times,serif" font-size="14.00">approval :integer</text>
<text text-anchor="start" x="331.333" y="-1984" font-family="Times,serif" font-size="14.00">role :string</text>
</g>
<!-- User&#45;&gt;Mentor -->
<g id="edge11" class="edge"><title>User&#45;&gt;Mentor</title>
<path fill="none" stroke="#6ed76d" d="M444.949,-1968.88C445.814,-1961.81 446.694,-1954.62 447.586,-1947.32"/>
<ellipse fill="none" stroke="#6ed76d" cx="444.453" cy="-1972.93" rx="4.00001" ry="4.00001"/>
<ellipse fill="#6ed76d" stroke="#6ed76d" cx="448.074" cy="-1943.33" rx="4.00001" ry="4.00001"/>
</g>
<!-- User&#45;&gt;Student -->
<g id="edge12" class="edge"><title>User&#45;&gt;Student</title>
<path fill="none" stroke="#2cb21f" d="M359.611,-1969.22C356.896,-1959.43 354.521,-1949.64 352.611,-1940 324.228,-1796.7 318.782,-1461.71 320.141,-1171.62"/>
<ellipse fill="none" stroke="#2cb21f" cx="360.757" cy="-1973.22" rx="4.00001" ry="4.00001"/>
<ellipse fill="#2cb21f" stroke="#2cb21f" cx="320.161" cy="-1167.48" rx="4" ry="4"/>
</g>
<!-- ActiveRecord::Base -->
<g id="node8" class="node"><title>ActiveRecord::Base</title>
<ellipse fill="none" stroke="black" cx="360.611" cy="-2359" rx="88.2033" ry="18"/>
<text text-anchor="middle" x="360.611" y="-2353.4" font-family="Times,serif" font-size="14.00">ActiveRecord::Base</text>
</g>
<!-- ActiveRecord::Base&#45;&gt;Mentor -->
<g id="edge4" class="edge"><title>ActiveRecord::Base&#45;&gt;Mentor</title>
<path fill="none" stroke="black" d="M427.11,-2346.97C466.161,-2336.71 512.46,-2317.12 536.611,-2280 600.226,-2182.22 610.958,-2059.9 599.202,-1944.52"/>
<polyline fill="none" stroke="black" points="598.663,-1939.38 599.185,-1944.36 "/>
</g>
<!-- ActiveRecord::Base&#45;&gt;Notification -->
<g id="edge5" class="edge"><title>ActiveRecord::Base&#45;&gt;Notification</title>
<path fill="none" stroke="black" d="M340.776,-2341.46C323.716,-2326.56 299.155,-2303.46 281.611,-2280 265.091,-2257.91 249.911,-2232.01 237.268,-2207.96"/>
<polyline fill="none" stroke="black" points="234.938,-2203.49 237.25,-2207.92 "/>
</g>
<!-- ActiveRecord::Base&#45;&gt;Ranking -->
<g id="edge6" class="edge"><title>ActiveRecord::Base&#45;&gt;Ranking</title>
<path fill="none" stroke="black" d="M327.084,-2342.15C308.378,-2333.69 284.5,-2323.5 262.611,-2316 202.646,-2295.46 163.364,-2330.16 124.611,-2280 42.0061,-2173.08 122.44,-2111.09 124.611,-1976 137.501,-1173.91 -197.941,-878.182 182.611,-172 199.024,-141.543 228.848,-118.074 257.282,-101.285"/>
<polyline fill="none" stroke="black" points="261.831,-98.648 257.506,-101.156 "/>
</g>
<!-- ActiveRecord::Base&#45;&gt;Student -->
<g id="edge9" class="edge"><title>ActiveRecord::Base&#45;&gt;Student</title>
<path fill="none" stroke="black" d="M346.898,-2340.96C335.742,-2325.92 320.861,-2302.9 314.611,-2280 279.038,-2149.66 314.437,-2111.11 314.611,-1976 315.055,-1631.11 312.27,-1544.86 316.611,-1200 316.742,-1189.6 316.884,-1179.09 317.037,-1168.49"/>
<polyline fill="none" stroke="black" points="317.113,-1163.28 317.04,-1168.28 "/>
</g>
<!-- ActiveRecord::Base&#45;&gt;Studentranking -->
<g id="edge10" class="edge"><title>ActiveRecord::Base&#45;&gt;Studentranking</title>
<path fill="none" stroke="black" d="M439.306,-2350.78C488.214,-2342.01 548.297,-2322.65 583.611,-2280 681.064,-2162.31 623.246,-2092.38 634.611,-1940 686.907,-1238.81 577.477,-387.946 542.129,-139.964"/>
<polyline fill="none" stroke="black" points="541.41,-134.93 542.117,-139.879 "/>
</g>
<!-- ActiveRecord::Base&#45;&gt;User -->
<g id="edge13" class="edge"><title>ActiveRecord::Base&#45;&gt;User</title>
<path fill="none" stroke="black" d="M365.496,-2340.79C369.355,-2327.19 375.161,-2306.74 381.669,-2283.81"/>
<polyline fill="none" stroke="black" points="383.068,-2278.88 381.703,-2283.69 "/>
</g>
</g>
</svg>
